<svg width="402" height="376" viewBox="0 0 402 376" fill="none" xmlns="http://www.w3.org/2000/svg">
<circle opacity="0.4" cx="127" cy="127" r="126" stroke="#38BC64" stroke-width="2"/>
<path d="M95 325.208V212.299V68.9129C95 60.6286 101.716 53.9129 110 53.9129H160.956V53.0719C160.956 44.7877 167.671 46.0719 175.956 46.0719H226.568C234.852 46.0719 241.568 44.7877 241.568 53.0719V53.9129H292C300.284 53.9129 307 60.6286 307 68.9129V331.117C307 339.402 300.284 346.117 292 346.117H274.546H115.938H110C101.716 346.117 95 339.402 95 331.117V325.208Z" fill="#111D19"/>
<path d="M160.956 53.9129H110C101.716 53.9129 95 60.6286 95 68.9129V212.299V325.208V331.117C95 339.402 101.716 346.117 110 346.117H115.938H274.546H292C300.284 346.117 307 339.402 307 331.117V68.9129C307 60.6286 300.284 53.9129 292 53.9129H241.568M160.956 53.9129V68.7538C160.956 77.0381 167.671 83.7538 175.956 83.7538H226.568C234.852 83.7538 241.568 77.0381 241.568 68.7538V53.9129M160.956 53.9129V53.0719C160.956 44.7877 167.671 46.0719 175.956 46.0719H226.568C234.852 46.0719 241.568 44.7877 241.568 53.0719V53.9129" stroke="#215D37" stroke-width="2"/>
<rect opacity="0.4" x="127" y="141.117" width="142" height="4" fill="#38BC64"/>
<rect opacity="0.4" x="127" y="167" width="59" height="4" fill="#38BC64"/>
<rect opacity="0.4" x="127" y="193" width="124" height="4" fill="#38BC64"/>
<path fill-rule="evenodd" clip-rule="evenodd" d="M306.936 198.237C288.142 176.218 256.802 170.295 233.254 190.458C209.707 210.62 206.391 244.331 224.883 268.177C240.258 288.004 286.788 329.82 302.038 343.354C303.744 344.868 304.597 345.625 305.592 345.922C306.46 346.182 307.411 346.182 308.279 345.922C309.274 345.625 310.127 344.868 311.834 343.354C327.083 329.82 373.613 288.004 388.988 268.177C407.48 244.331 404.569 210.408 380.617 190.458C356.665 170.507 325.73 176.218 306.936 198.237Z" fill="#111D19" stroke="#215D37" stroke-width="2" stroke-linecap="round" stroke-linejoin="round"/>
<path opacity="0.4" d="M195.17 315.919C195.853 315.828 196.543 316.013 197.086 316.432L199.593 318.356C200.422 318.993 201.575 318.993 202.401 318.356L205.002 316.358C205.489 315.986 206.102 315.821 206.708 315.902L209.963 316.331C210.997 316.467 211.995 315.891 212.395 314.926L213.648 311.898C213.881 311.331 214.33 310.882 214.897 310.648L217.925 309.396C218.89 308.997 219.467 307.997 219.33 306.963L218.918 303.826C218.828 303.143 219.013 302.454 219.432 301.91L221.355 299.403C221.992 298.574 221.992 297.421 221.355 296.595L219.358 293.993C218.985 293.507 218.821 292.894 218.902 292.287L219.33 289.033C219.467 287.998 218.89 287 217.925 286.6L214.897 285.348C214.33 285.114 213.881 284.665 213.648 284.098L212.395 281.07C211.997 280.105 210.997 279.528 209.963 279.665L206.708 280.093C206.102 280.177 205.489 280.012 205.005 279.642L202.403 277.644C201.575 277.008 200.422 277.008 199.596 277.644L196.994 279.642C196.508 280.012 195.894 280.177 195.288 280.098L192.034 279.67C190.999 279.533 190.001 280.109 189.601 281.075L188.351 284.102C188.115 284.667 187.666 285.116 187.101 285.352L184.074 286.602C183.108 287.003 182.532 288 182.669 289.035L183.097 292.29C183.176 292.896 183.011 293.509 182.641 293.993L180.643 296.595C180.007 297.424 180.007 298.576 180.643 299.403L182.641 302.005C183.014 302.491 183.178 303.104 183.097 303.711L182.669 306.965C182.532 308 183.108 308.997 184.074 309.398L187.101 310.65C187.668 310.884 188.117 311.333 188.351 311.9L189.603 314.928C190.001 315.893 191.001 316.469 192.036 316.333L195.17 315.919Z" stroke="#215D37" stroke-width="2" stroke-linecap="round" stroke-linejoin="round"/>
<path d="M194.75 298L198.917 302.167L208.292 292.792" stroke="#215D37" stroke-width="2" stroke-linecap="round" stroke-linejoin="round"/>
<path d="M267 258.5H293.788C294.214 258.5 294.594 258.23 294.733 257.828L305.934 225.516C306.289 224.493 307.791 224.685 307.876 225.765L311.5 271.672C311.59 272.809 313.206 272.934 313.47 271.825L316.817 257.768C316.924 257.318 317.327 257 317.79 257H351" stroke="#215D37" stroke-width="4" stroke-linecap="round"/>
<path d="M75.2747 315.083C86.1594 315.083 94.9831 311.875 94.9831 307.917C94.9831 303.959 86.1594 300.75 75.2747 300.75C64.3901 300.75 55.5664 303.959 55.5664 307.917C55.5664 311.875 64.3901 315.083 75.2747 315.083Z" fill="#111D19"/>
<path d="M75.2747 300.75C64.3901 300.75 55.5664 303.959 55.5664 307.917V350.917C55.5664 354.875 64.3901 358.083 75.2747 358.083C80.0392 358.083 84.4089 357.469 87.8164 356.445V329.417C87.8164 327.191 90.606 325.203 94.9831 323.888V307.917C94.9831 303.959 86.1594 300.75 75.2747 300.75Z" fill="#111D19"/>
<path d="M94.9831 307.917C94.9831 311.875 86.1594 315.083 75.2747 315.083C64.3901 315.083 55.5664 311.875 55.5664 307.917M94.9831 307.917C94.9831 303.959 86.1594 300.75 75.2747 300.75C64.3901 300.75 55.5664 303.959 55.5664 307.917M94.9831 307.917V323.888C90.606 325.203 87.8164 327.191 87.8164 329.417V356.445C84.4089 357.469 80.0392 358.083 75.2747 358.083C64.3901 358.083 55.5664 354.875 55.5664 350.917V307.917M55.5664 322.25C55.5664 326.208 64.3901 329.417 75.2747 329.417C80.0392 329.417 84.4089 328.802 87.8164 327.779M55.5664 336.583C55.5664 340.541 64.3901 343.75 75.2747 343.75C80.0392 343.75 84.4089 343.135 87.8164 342.112" stroke="#215D37" stroke-width="2" stroke-linecap="round" stroke-linejoin="round"/>
<path d="M107.525 336.583C118.409 336.583 127.233 333.375 127.233 329.417C127.233 325.459 118.409 322.25 107.525 322.25C96.6401 322.25 87.8164 325.459 87.8164 329.417C87.8164 333.375 96.6401 336.583 107.525 336.583Z" fill="#111D19"/>
<path d="M87.8164 329.417C87.8164 325.459 96.6401 322.25 107.525 322.25C118.409 322.25 127.233 325.459 127.233 329.417V358.083C127.233 362.041 118.409 365.25 107.525 365.25C96.6401 365.25 87.8164 362.041 87.8164 358.083V329.417Z" fill="#111D19"/>
<path d="M127.233 329.417C127.233 333.375 118.409 336.583 107.525 336.583C96.6401 336.583 87.8164 333.375 87.8164 329.417M127.233 329.417C127.233 325.459 118.409 322.25 107.525 322.25C96.6401 322.25 87.8164 325.459 87.8164 329.417M127.233 329.417V358.083C127.233 362.041 118.409 365.25 107.525 365.25C96.6401 365.25 87.8164 362.041 87.8164 358.083V329.417M127.233 343.75C127.233 347.708 118.409 350.917 107.525 350.917C96.6401 350.917 87.8164 347.708 87.8164 343.75" stroke="#215D37" stroke-width="2" stroke-linecap="round" stroke-linejoin="round"/>
</svg>
