<svg width="541" height="365" viewBox="0 0 541 365" fill="none" xmlns="http://www.w3.org/2000/svg">
<circle opacity="0.2" cx="413" cy="128" r="127" stroke="#215D37" stroke-linecap="round" stroke-linejoin="round"/>
<g clip-path="url(#clip0_930_10765)">
<rect x="9.45703" y="80.8789" width="458.086" height="256.301" fill="#111D19" stroke="#215D37" stroke-width="2" stroke-linecap="round" stroke-linejoin="round"/>
<path d="M151.906 344.875H324.501L323.148 349.212C321.511 354.456 320.693 357.079 319.113 359.021C317.718 360.735 315.909 362.066 313.857 362.886C311.532 363.816 308.785 363.816 303.292 363.816H173.26C167.916 363.816 165.244 363.816 162.965 362.927C160.952 362.141 159.166 360.867 157.77 359.218C156.189 357.351 155.321 354.824 153.586 349.769L151.906 344.875Z" fill="#111D19" stroke="#215D37" stroke-linecap="round" stroke-linejoin="round"/>
<path d="M159.592 349.018H316.819C315.099 352.421 314.239 354.123 313.04 355.436C311.396 357.238 309.278 358.54 306.929 359.195C305.216 359.673 303.309 359.673 299.496 359.673H177.705C173.296 359.673 171.091 359.673 169.123 359.029C167.338 358.446 165.701 357.483 164.324 356.207C162.805 354.799 161.734 352.872 159.592 349.018Z" fill="#111D19" stroke="#215D37" stroke-linecap="round" stroke-linejoin="round"/>
<rect y="72" width="477" height="274.059" rx="4" fill="#111D19" stroke="#215D37" stroke-linecap="round" stroke-linejoin="round"/>
</g>
<circle opacity="0.2" cx="312.111" cy="211.859" r="90.9454" stroke="#215D37" stroke-linecap="round" stroke-linejoin="round"/>
<circle cx="312.111" cy="211.859" r="90.9454" stroke="#215D37" stroke-linecap="round" stroke-linejoin="round" stroke-dasharray="0.5 14.36"/>
<path opacity="0.2" d="M418.267 211.859C418.267 270.488 370.739 318.015 312.111 318.015C253.483 318.015 205.955 270.488 205.955 211.859C205.955 153.231 253.483 105.704 312.111 105.704C338.073 105.704 361.858 115.023 380.303 130.5C403.512 149.973 418.267 179.193 418.267 211.859Z" stroke="#215D37" stroke-linecap="round" stroke-linejoin="round"/>
<path d="M418.267 211.859C418.267 270.488 370.739 318.015 312.111 318.015C253.483 318.015 205.955 270.488 205.955 211.859C205.955 153.231 253.483 105.704 312.111 105.704C338.073 105.704 361.858 115.023 380.303 130.5C403.512 149.973 418.267 179.193 418.267 211.859Z" stroke="#215D37" stroke-linecap="round" stroke-linejoin="round" stroke-dasharray="0.5 14.36"/>
<path d="M220.5 236.5L222 226.5L269.332 251.152L283.5 297.5L283 298.5L280.5 303L243.348 284.108L220.5 236.5Z" fill="#111D19"/>
<path d="M380.5 122L409.5 144.5L376 135L360 131.5L373 118L380.5 122Z" fill="#111D19"/>
<rect opacity="0.2" x="226" y="243.091" width="17.7454" height="1.26753" rx="0.633766" transform="rotate(-23.5516 226 243.091)" fill="#215D37"/>
<rect opacity="0.2" x="232" y="256.98" width="17.7454" height="1.26753" rx="0.633766" transform="rotate(-30.3998 232 256.98)" fill="#215D37"/>
<rect opacity="0.2" x="242" y="270.016" width="17.7454" height="1.26753" rx="0.633766" transform="rotate(-38.3729 242 270.016)" fill="#215D37"/>
<rect opacity="0.2" x="253" y="280.878" width="17.7454" height="1.26753" rx="0.633766" transform="rotate(-46.5302 253 280.878)" fill="#215D37"/>
<rect opacity="0.2" x="266" y="290.78" width="17.7454" height="1.26753" rx="0.633766" transform="rotate(-50.9423 266 290.78)" fill="#215D37"/>
<path opacity="0.2" fill-rule="evenodd" clip-rule="evenodd" d="M310.673 187.927C301.055 176.706 285.017 173.687 272.967 183.962C260.916 194.238 259.22 211.418 268.683 223.57C276.551 233.675 300.363 254.985 308.167 261.882C309.04 262.654 309.476 263.04 309.986 263.191C310.43 263.324 310.916 263.324 311.361 263.191C311.87 263.04 312.307 262.654 313.18 261.882C320.984 254.985 344.795 233.675 352.664 223.57C362.127 211.418 360.637 194.13 348.38 183.962C336.122 173.795 320.291 176.706 310.673 187.927Z" fill="#111D19" stroke="#215D37" stroke-linecap="round" stroke-linejoin="round"/>
<path d="M187.5 220.732H199L206.116 211.861L222.5 226.5L229.195 220.732H239.652" stroke="#215D37" stroke-width="1.5" stroke-linecap="square"/>
<circle cx="363.669" cy="140.813" r="12.4946" transform="rotate(5.58153 363.669 140.813)" fill="#111D19"/>
<circle cx="363.669" cy="140.813" r="11.9946" transform="rotate(5.58153 363.669 140.813)" stroke="#215D37" stroke-opacity="0.2"/>
<rect opacity="0.2" x="372.322" y="132.303" width="0.918504" height="23.8198" transform="rotate(50.5815 372.322 132.303)" fill="#215D37"/>
<circle cx="12.4058" cy="12.4058" r="12.4058" transform="matrix(-0.205529 -0.978651 -0.978651 0.205529 376.158 124.06)" fill="#111D19"/>
<circle cx="12.4058" cy="12.4058" r="11.9058" transform="matrix(-0.205529 -0.978651 -0.978651 0.205529 376.158 124.06)" stroke="#215D37" stroke-opacity="0.2"/>
<rect opacity="0.2" width="0.911977" height="24.1633" transform="matrix(-0.837342 -0.54668 -0.54668 0.837342 369.066 104.794)" fill="#215D37"/>
<circle cx="12.1895" cy="12.1895" r="12.1895" transform="matrix(-0.258819 0.965926 0.965926 0.258819 379.416 115.106)" fill="#111D19"/>
<circle cx="12.1895" cy="12.1895" r="11.6895" transform="matrix(-0.258819 0.965926 0.965926 0.258819 379.416 115.106)" stroke="#215D37" stroke-opacity="0.2"/>
<rect opacity="0.2" width="0.896076" height="23.5524" transform="matrix(0.5 0.866025 0.866025 -0.5 377.16 135.097)" fill="#215D37"/>
<path d="M314.013 206.747C314.013 206.096 314.013 205.771 313.887 205.522C313.775 205.304 313.597 205.126 313.379 205.015C313.13 204.888 312.805 204.888 312.154 204.888H308.901C308.25 204.888 307.925 204.888 307.676 205.015C307.458 205.126 307.28 205.304 307.168 205.522C307.042 205.771 307.042 206.096 307.042 206.747V210C307.042 210.651 307.042 210.976 306.915 211.225C306.804 211.444 306.626 211.621 306.407 211.733C306.159 211.859 305.833 211.859 305.183 211.859H301.929C301.279 211.859 300.953 211.859 300.705 211.986C300.486 212.097 300.308 212.275 300.197 212.494C300.07 212.742 300.07 213.068 300.07 213.718V216.972C300.07 217.622 300.07 217.948 300.197 218.196C300.308 218.415 300.486 218.593 300.705 218.704C300.953 218.831 301.279 218.831 301.929 218.831H305.183C305.833 218.831 306.159 218.831 306.407 218.957C306.626 219.069 306.804 219.247 306.915 219.465C307.042 219.714 307.042 220.039 307.042 220.69V223.943C307.042 224.594 307.042 224.919 307.168 225.168C307.28 225.386 307.458 225.564 307.676 225.676C307.925 225.802 308.25 225.802 308.901 225.802H312.154C312.805 225.802 313.13 225.802 313.379 225.676C313.597 225.564 313.775 225.386 313.887 225.168C314.013 224.919 314.013 224.594 314.013 223.943V220.69C314.013 220.039 314.013 219.714 314.14 219.465C314.251 219.247 314.429 219.069 314.648 218.957C314.896 218.831 315.221 218.831 315.872 218.831H319.126C319.776 218.831 320.102 218.831 320.35 218.704C320.569 218.593 320.747 218.415 320.858 218.196C320.985 217.948 320.985 217.622 320.985 216.972V213.718C320.985 213.068 320.985 212.742 320.858 212.494C320.747 212.275 320.569 212.097 320.35 211.986C320.102 211.859 319.776 211.859 319.126 211.859L315.872 211.859C315.221 211.859 314.896 211.859 314.648 211.733C314.429 211.621 314.251 211.444 314.14 211.225C314.013 210.976 314.013 210.651 314.013 210V206.747Z" fill="#111D19" stroke="#215D37" stroke-linecap="round" stroke-linejoin="round"/>
<rect x="21" y="102" width="20.1047" height="1.43605" rx="0.718023" fill="#215D37"/>
<rect x="21" y="107" width="20.1047" height="1.43605" rx="0.718023" fill="#215D37"/>
<g opacity="0.4">
<rect x="21" y="252" width="57" height="1" rx="0.5" fill="#215D37"/>
<rect x="21" y="258" width="158" height="1" rx="0.5" fill="#215D37"/>
<rect x="21" y="264" width="130" height="1" rx="0.5" fill="#215D37"/>
<rect x="21" y="270" width="130" height="1" rx="0.5" fill="#215D37"/>
<rect x="21" y="276" width="130" height="1" rx="0.5" fill="#215D37"/>
<rect x="21" y="282" width="57" height="1" rx="0.5" fill="#215D37"/>
<rect x="21" y="288" width="57" height="1" rx="0.5" fill="#215D37"/>
<rect x="21" y="294" width="57" height="1" rx="0.5" fill="#215D37"/>
</g>
<g opacity="0.5" clip-path="url(#clip1_930_10765)">
<rect x="21.5" y="148.5" width="77" height="77" fill="#111D19" stroke="#215D37" stroke-linecap="round" stroke-linejoin="round"/>
<rect x="21" y="225.397" width="109.573" height="1" rx="0.5" transform="rotate(-44.9384 21 225.397)" fill="#215D37"/>
<rect width="109.573" height="1" rx="0.5" transform="matrix(-0.707866 -0.706347 -0.706347 0.707866 99.2695 225.397)" fill="#215D37"/>
</g>
<defs>
<clipPath id="clip0_930_10765">
<rect width="477" height="293" fill="white" transform="translate(0 72)"/>
</clipPath>
<clipPath id="clip1_930_10765">
<rect width="78" height="78" fill="white" transform="translate(21 148)"/>
</clipPath>
</defs>
</svg>
