<svg width="102" height="102" viewBox="0 0 102 102" fill="none" xmlns="http://www.w3.org/2000/svg">
<rect opacity="0.5" x="0.5" y="0.5" width="101" height="101" rx="50.5" fill="#38BC64" fill-opacity="0.5" stroke="#38BC64"/>
<path opacity="0.4" d="M34.775 49.1667C34.5947 48.2782 34.5 47.3585 34.5 46.4167C34.5 38.8228 40.6561 32.6667 48.25 32.6667C55.2223 32.6667 60.9825 37.8563 61.8788 44.5834" stroke="white" stroke-width="2" stroke-linecap="round" stroke-linejoin="round"/>
<path d="M40.0013 69.3335C35.9512 69.3335 32.668 66.0503 32.668 62.0002C32.668 57.9501 35.9512 54.6668 40.0013 54.6668C40.2091 54.6668 40.4148 54.6755 40.6182 54.6924C42.121 50.4067 46.2023 47.3335 51.0013 47.3335C55.0802 47.3335 58.6405 49.5535 60.5399 52.8512C60.72 52.8395 60.9016 52.8335 61.0846 52.8335C65.641 52.8335 69.3346 56.5271 69.3346 61.0835C69.3346 65.6398 65.641 69.3335 61.0846 69.3335C54.234 69.3335 47.4347 69.3335 40.0013 69.3335Z" stroke="white" stroke-width="2" stroke-linecap="round" stroke-linejoin="round"/>
<circle opacity="0.4" cx="42" cy="43" r="1" stroke="white" stroke-width="2" stroke-linecap="round" stroke-linejoin="round"/>
<circle opacity="0.4" cx="52" cy="41" r="1" stroke="white" stroke-width="2" stroke-linecap="round" stroke-linejoin="round"/>
</svg>
