<svg width="102" height="102" viewBox="0 0 102 102" fill="none" xmlns="http://www.w3.org/2000/svg">
<path opacity="0.4" d="M69.3327 48.2499L68.4629 41.2917C68.1218 38.5626 67.9512 37.198 67.3089 36.1697C66.7431 35.2637 65.9257 34.5421 64.9565 34.093C63.8564 33.5833 62.4813 33.5833 59.7309 33.5833H42.2678C39.5174 33.5833 38.1423 33.5833 37.0422 34.093C36.073 34.5421 35.2556 35.2637 34.6898 36.1697C34.0475 37.198 33.8769 38.5626 33.5358 41.2917L32.666 48.2499" stroke="white" stroke-width="2" stroke-linecap="round" stroke-linejoin="round"/>
<path d="M39.0827 55.5833H62.916M39.0827 55.5833C35.5389 55.5833 32.666 52.7105 32.666 49.1667C32.666 45.6228 35.5389 42.75 39.0827 42.75H62.916C66.4598 42.75 69.3327 45.6228 69.3327 49.1667C69.3327 52.7105 66.4598 55.5833 62.916 55.5833M39.0827 55.5833C35.5389 55.5833 32.666 58.4562 32.666 62C32.666 65.5438 35.5389 68.4167 39.0827 68.4167H62.916C66.4598 68.4167 69.3327 65.5438 69.3327 62C69.3327 58.4562 66.4598 55.5833 62.916 55.5833M39.9993 49.1667H40.0177M39.9993 62H40.0177M50.9993 49.1667H61.9993M50.9993 62H61.9993" stroke="white" stroke-width="2" stroke-linecap="round" stroke-linejoin="round"/>
<rect opacity="0.5" x="0.5" y="0.5" width="101" height="101" rx="50.5" fill="#38BC64" fill-opacity="0.5" stroke="#38BC64"/>
</svg>
