<svg width="102" height="102" viewBox="0 0 102 102" fill="none" xmlns="http://www.w3.org/2000/svg">
<rect opacity="0.5" x="0.5" y="0.5" width="101" height="101" rx="50.5" fill="#38BC64" fill-opacity="0.5" stroke="#38BC64"/>
<path opacity="0.4" d="M40.0013 39.9998L48.2513 48.2498M40.0013 39.9998H34.5013L32.668 34.4998L34.5013 32.6665L40.0013 34.4998V39.9998ZM51.0014 56.4997L61.0846 66.583C62.6034 68.1017 65.0658 68.1017 66.5846 66.583C68.1034 65.0642 68.1034 62.6017 66.5846 61.083L58.2894 52.7879C57.7022 52.7323 57.1296 52.6264 56.5761 52.4744C55.8628 52.2787 55.0804 52.4208 54.5573 52.9438L51.0014 56.4997Z" stroke="white" stroke-width="2" stroke-linecap="round" stroke-linejoin="round"/>
<path d="M64.3079 34.0253L59.4906 38.8426C58.7646 39.5686 58.4016 39.9316 58.2656 40.3502C58.1459 40.7184 58.1459 41.1151 58.2656 41.4833C58.4016 41.9019 58.7646 42.2649 59.4906 42.9909L59.9256 43.4259C60.6516 44.1519 61.0146 44.5149 61.4332 44.651C61.8014 44.7706 62.1981 44.7706 62.5663 44.651C62.9849 44.5149 63.3479 44.1519 64.0739 43.4259L68.5801 38.9197C69.0655 40.1007 69.3331 41.3941 69.3331 42.7501C69.3331 48.319 64.8186 52.8334 59.2498 52.8334C58.5784 52.8334 57.9223 52.7678 57.2877 52.6426C56.3964 52.4669 55.9508 52.379 55.6806 52.4059C55.3934 52.4345 55.2518 52.4776 54.9974 52.6137C54.758 52.7418 54.5179 52.982 54.0376 53.4622L40.9164 66.5834C39.3976 68.1022 36.9352 68.1022 35.4164 66.5834C33.8976 65.0646 33.8976 62.6022 35.4164 61.0834L48.5376 47.9622C49.0179 47.482 49.258 47.2418 49.3861 47.0025C49.5223 46.748 49.5653 46.6064 49.594 46.3192C49.6209 46.0491 49.533 45.6034 49.3572 44.7122C49.232 44.0775 49.1664 43.4215 49.1664 42.7501C49.1664 37.1812 53.6809 32.6667 59.2498 32.6667C61.0932 32.6667 62.8211 33.1614 64.3079 34.0253Z" stroke="white" stroke-width="2" stroke-linecap="round" stroke-linejoin="round"/>
</svg>
