<svg width="66" height="66" viewBox="0 0 66 66" fill="none" xmlns="http://www.w3.org/2000/svg">
<circle cx="33" cy="33" r="33" fill="#38BC64"/>
<path opacity="0.4" d="M30.4173 38.125L25.6763 42.9253C25.015 43.5948 24.6843 43.9296 24.4001 43.9532C24.1535 43.9737 23.9121 43.8746 23.7511 43.6868C23.5655 43.4702 23.5655 42.9997 23.5655 42.0586V39.6537C23.5655 38.8094 22.8741 38.1985 22.0387 38.0761V38.0761C20.0168 37.78 18.429 36.1921 18.1328 34.1703C18.084 33.8369 18.084 33.4391 18.084 32.6435V25.4833C18.084 22.8931 18.084 21.5979 18.5881 20.6086C19.0315 19.7384 19.739 19.0308 20.6093 18.5874C21.5986 18.0833 22.8937 18.0833 25.484 18.0833H36.8923C39.4826 18.0833 40.7777 18.0833 41.767 18.5874C42.6373 19.0308 43.3448 19.7384 43.7882 20.6086C44.2923 21.5979 44.2923 22.8931 44.2923 25.4833V31.9583" stroke="white" stroke-width="2" stroke-linecap="round" stroke-linejoin="round"/>
<path d="M48.916 36.8916C48.916 35.1648 48.916 34.3014 48.58 33.6418C48.2843 33.0617 47.8127 32.59 47.2325 32.2944C46.5729 31.9583 45.7095 31.9583 43.9827 31.9583H35.3493C33.6225 31.9583 32.7591 31.9583 32.0995 32.2944C31.5194 32.59 31.0477 33.0617 30.7521 33.6418C30.416 34.3014 30.416 35.1648 30.416 36.8916V40.7678C30.416 42.4947 30.416 43.3581 30.7521 44.0176C31.0477 44.5978 31.5194 45.0695 32.0995 45.3651C32.7591 45.7012 33.6225 45.7012 35.3493 45.7012H38.1196C38.694 45.7012 38.9813 45.7012 39.2584 45.7522C39.5043 45.7976 39.7438 45.8726 39.9716 45.9758C40.2282 46.092 40.4641 46.256 40.9357 46.5839L44.291 48.9166V45.7012C45.7277 45.7012 46.446 45.7012 47.0126 45.4665C47.7681 45.1535 48.3684 44.5533 48.6813 43.7978C48.916 43.2312 48.916 42.5128 48.916 41.0762V36.8916Z" stroke="white" stroke-width="2" stroke-linecap="round" stroke-linejoin="round"/>
</svg>
