<svg width="66" height="66" viewBox="0 0 66 66" fill="none" xmlns="http://www.w3.org/2000/svg">
<circle cx="33" cy="33" r="33" fill="#38BC64"/>
<path opacity="0.4" d="M16.333 41.3333V41.083C16.333 40.5555 16.333 40.2918 16.3734 40.0348C16.4092 39.8067 16.4686 39.5829 16.5507 39.367C16.6432 39.1239 16.774 38.8949 17.0357 38.4369L22.9997 28M22.9997 28L28.9636 38.4369C29.2253 38.8949 29.3562 39.1239 29.4487 39.367C29.5307 39.5829 29.5902 39.8067 29.626 40.0348C29.6663 40.2918 29.6663 40.5555 29.6663 41.083V41.3333M22.9997 28L32.9997 26.3333M36.333 38V37.7497C36.333 37.2222 36.333 36.9585 36.3734 36.7015C36.4092 36.4734 36.4686 36.2496 36.5507 36.0337C36.6432 35.7906 36.774 35.5616 37.0357 35.1036L42.9997 24.6667M42.9997 24.6667L48.9636 35.1036C49.2253 35.5616 49.3562 35.7906 49.4486 36.0337C49.5307 36.2496 49.5902 36.4734 49.626 36.7015C49.6663 36.9585 49.6663 37.2222 49.6663 37.7497V38M42.9997 24.6667L32.9997 26.3333M32.9997 18V26.3333" stroke="white" stroke-width="2" stroke-linecap="round" stroke-linejoin="round"/>
<path d="M22.9997 48C26.6816 48 29.6663 45.0152 29.6663 41.3333V41C29.6663 40.5333 29.6663 40.2999 29.5755 40.1217C29.4956 39.9649 29.3681 39.8374 29.2113 39.7575C29.0331 39.6667 28.7997 39.6667 28.333 39.6667H17.6663C17.1996 39.6667 16.9663 39.6667 16.788 39.7575C16.6312 39.8374 16.5037 39.9649 16.4238 40.1217C16.333 40.2999 16.333 40.5333 16.333 41V41.3333C16.333 45.0152 19.3178 48 22.9997 48Z" stroke="white" stroke-width="2" stroke-linecap="round" stroke-linejoin="round"/>
<path d="M42.9997 44.6667C46.6816 44.6667 49.6663 41.6819 49.6663 38V37.6667C49.6663 37.2 49.6663 36.9666 49.5755 36.7883C49.4956 36.6315 49.3681 36.5041 49.2113 36.4242C49.0331 36.3333 48.7997 36.3333 48.333 36.3333H37.6663C37.1996 36.3333 36.9663 36.3333 36.788 36.4242C36.6312 36.5041 36.5037 36.6315 36.4238 36.7883C36.333 36.9666 36.333 37.2 36.333 37.6667V38C36.333 41.6819 39.3178 44.6667 42.9997 44.6667Z" stroke="white" stroke-width="2" stroke-linecap="round" stroke-linejoin="round"/>
</svg>
