<svg width="144" height="28" viewBox="0 0 144 28" fill="none" xmlns="http://www.w3.org/2000/svg">
<g opacity="0.9">
<path d="M11.961 11.2204V20.6065H10.2607V12.8749H10.2057L8.01044 14.2773V12.7191L10.3432 11.2204H11.961Z" fill="white"/>
<rect x="0.767751" y="4.76775" width="17.9645" height="22.4645" stroke="white" stroke-width="1.5355"/>
<path d="M29.3492 11.2204V20.6065H27.6488V12.8749H27.5938L25.3986 14.2773V12.7191L27.7313 11.2204H29.3492Z" fill="white"/>
<rect x="18.3928" y="4.76775" width="17.9645" height="22.4645" stroke="white" stroke-width="1.5355"/>
<path d="M46.9742 11.2204V20.6065H45.2738V12.8749H45.2188L43.0236 14.2773V12.7191L45.3563 11.2204H46.9742Z" fill="white"/>
<rect x="36.0178" y="4.76775" width="17.9645" height="22.4645" stroke="white" stroke-width="1.5355"/>
<path d="M75.5591 10.3351V10.6575C75.2151 10.6683 74.9518 10.7113 74.769 10.7865C74.5863 10.851 74.4627 10.98 74.3982 11.1735C74.3445 11.3562 74.3176 11.6464 74.3176 12.0441V20.041C74.3176 20.4279 74.3499 20.7181 74.4143 20.9116C74.4788 21.1051 74.5971 21.2341 74.769 21.2986C74.9518 21.3631 75.2151 21.406 75.5591 21.4275V21.75C75.2796 21.7285 74.9249 21.7178 74.495 21.7178C74.065 21.707 73.6297 21.7016 73.189 21.7016C72.7053 21.7016 72.2485 21.707 71.8186 21.7178C71.3994 21.7178 71.0608 21.7285 70.8028 21.75V21.4275C71.1683 21.406 71.4424 21.3631 71.6251 21.2986C71.8186 21.2341 71.9476 21.1051 72.0121 20.9116C72.0765 20.7181 72.1088 20.4279 72.1088 20.041V11.2702L72.2216 11.2863L68.2232 21.7984H67.9652L63.7088 11.3669V19.3638C63.7088 19.8798 63.7411 20.2828 63.8056 20.573C63.87 20.8525 64.0098 21.0567 64.2248 21.1857C64.4505 21.3039 64.789 21.3846 65.2405 21.4275V21.75C65.0363 21.7285 64.7729 21.7178 64.4505 21.7178C64.128 21.707 63.8217 21.7016 63.5315 21.7016C63.2735 21.7016 63.0102 21.707 62.7415 21.7178C62.4835 21.7178 62.2685 21.7285 62.0965 21.75V21.4275C62.4512 21.3846 62.7146 21.3039 62.8866 21.1857C63.0693 21.0675 63.1875 20.874 63.2413 20.6053C63.3058 20.3366 63.338 19.9657 63.338 19.4928V12.0441C63.338 11.6464 63.3058 11.3562 63.2413 11.1735C63.1875 10.98 63.0693 10.851 62.8866 10.7865C62.7146 10.7113 62.4512 10.6683 62.0965 10.6575V10.3351C62.2685 10.3458 62.4835 10.3566 62.7415 10.3673C63.0102 10.3781 63.2735 10.3834 63.5315 10.3834C63.9292 10.3834 64.3161 10.3781 64.6923 10.3673C65.0685 10.3566 65.4017 10.3458 65.6919 10.3351L69.1583 18.993L68.8036 19.2832L72.1733 10.3834C72.3345 10.3834 72.5011 10.3834 72.6731 10.3834C72.8558 10.3834 73.0278 10.3834 73.189 10.3834C73.6297 10.3834 74.065 10.3781 74.495 10.3673C74.9249 10.3566 75.2796 10.3458 75.5591 10.3351ZM78.5769 9.30321C78.9639 9.30321 79.2809 9.4107 79.5282 9.62567C79.7754 9.84064 79.899 10.1255 79.899 10.4802C79.899 10.8349 79.7754 11.1197 79.5282 11.3347C79.2809 11.5497 78.9639 11.6571 78.5769 11.6571C78.19 11.6571 77.8729 11.5497 77.6257 11.3347C77.3785 11.1197 77.2549 10.8349 77.2549 10.4802C77.2549 10.1255 77.3785 9.84064 77.6257 9.62567C77.8729 9.4107 78.19 9.30321 78.5769 9.30321ZM79.7055 13.2372V20.2506C79.7055 20.702 79.7861 21.0084 79.9474 21.1696C80.1193 21.3308 80.4042 21.4114 80.8019 21.4114V21.75C80.6084 21.7393 80.3128 21.7285 79.9151 21.7178C79.5174 21.6963 79.1143 21.6855 78.7059 21.6855C78.3082 21.6855 77.9051 21.6963 77.4967 21.7178C77.0883 21.7285 76.7819 21.7393 76.5777 21.75V21.4114C76.9754 21.4114 77.2549 21.3308 77.4161 21.1696C77.5881 21.0084 77.674 20.702 77.674 20.2506V15.188C77.674 14.6936 77.5934 14.3335 77.4322 14.1078C77.2817 13.8713 76.9969 13.7531 76.5777 13.7531V13.4145C76.9216 13.4468 77.2549 13.4629 77.5773 13.4629C77.975 13.4629 78.3512 13.4468 78.7059 13.4145C79.0714 13.3715 79.4046 13.3124 79.7055 13.2372ZM87.3254 13.1888C87.7769 13.1888 88.1369 13.2479 88.4056 13.3662C88.6851 13.4844 88.9108 13.6349 89.0828 13.8176C89.2763 14.0218 89.4106 14.2852 89.4859 14.6076C89.5719 14.9301 89.6149 15.3654 89.6149 15.9136V20.2506C89.6149 20.702 89.6955 21.0084 89.8567 21.1696C90.0287 21.3308 90.3135 21.4114 90.7112 21.4114V21.75C90.5177 21.7393 90.2168 21.7285 89.8083 21.7178C89.4106 21.6963 89.0237 21.6855 88.6475 21.6855C88.2498 21.6855 87.8628 21.6963 87.4866 21.7178C87.1104 21.7285 86.831 21.7393 86.6483 21.75V21.4114C86.9922 21.4114 87.2341 21.3308 87.3738 21.1696C87.5135 21.0084 87.5834 20.702 87.5834 20.2506V15.3654C87.5834 15.0752 87.5565 14.8172 87.5028 14.5915C87.449 14.355 87.3415 14.1723 87.1803 14.0433C87.0191 13.9036 86.788 13.8337 86.487 13.8337C86.1323 13.8337 85.8153 13.9305 85.5358 14.1239C85.2671 14.3174 85.0521 14.5861 84.8909 14.9301C84.7404 15.2633 84.6652 15.6395 84.6652 16.0587V20.2506C84.6652 20.702 84.735 21.0084 84.8748 21.1696C85.0145 21.3308 85.2563 21.4114 85.6003 21.4114V21.75C85.4176 21.7393 85.1435 21.7285 84.778 21.7178C84.4126 21.6963 84.0417 21.6855 83.6655 21.6855C83.2679 21.6855 82.8648 21.6963 82.4563 21.7178C82.0479 21.7285 81.7416 21.7393 81.5373 21.75V21.4114C81.935 21.4114 82.2145 21.3308 82.3757 21.1696C82.5477 21.0084 82.6337 20.702 82.6337 20.2506V15.1719C82.6337 14.6882 82.5531 14.3335 82.3918 14.1078C82.2414 13.8713 81.9565 13.7531 81.5373 13.7531V13.4145C81.8813 13.4468 82.2145 13.4629 82.537 13.4629C82.9346 13.4629 83.3108 13.4468 83.6655 13.4145C84.031 13.3715 84.3642 13.3124 84.6652 13.2372V14.8494C84.9339 14.2368 85.3047 13.8068 85.7776 13.5596C86.2506 13.3124 86.7665 13.1888 87.3254 13.1888ZM99.1337 13.2372V20.0087C99.1337 20.4924 99.2143 20.8525 99.3756 21.089C99.5368 21.3147 99.8216 21.4275 100.23 21.4275V21.7661C99.8969 21.7339 99.5637 21.7178 99.2305 21.7178C98.8328 21.7178 98.4512 21.7339 98.0857 21.7661C97.731 21.7984 97.4032 21.8575 97.1022 21.9435V20.3312C96.8335 20.9224 96.4627 21.3469 95.9898 21.6049C95.5276 21.8521 95.0278 21.9757 94.4904 21.9757C94.0712 21.9757 93.7165 21.9166 93.4263 21.7984C93.1468 21.6909 92.9211 21.5404 92.7491 21.3469C92.5664 21.1427 92.4374 20.874 92.3622 20.5408C92.2869 20.2076 92.2493 19.7776 92.2493 19.251V15.1719C92.2493 14.6882 92.1687 14.3335 92.0074 14.1078C91.857 13.8713 91.5721 13.7531 91.1529 13.7531V13.4145C91.4969 13.4468 91.8301 13.4629 92.1526 13.4629C92.5502 13.4629 92.9264 13.4468 93.2811 13.4145C93.6466 13.3715 93.9798 13.3124 94.2808 13.2372V19.8153C94.2808 20.1055 94.3023 20.3634 94.3453 20.5892C94.399 20.8149 94.5011 20.9976 94.6516 21.1373C94.8021 21.2663 95.0278 21.3308 95.3287 21.3308C95.6619 21.3308 95.9629 21.2341 96.2316 21.0406C96.5003 20.8471 96.7099 20.5838 96.8604 20.2506C97.0216 19.9174 97.1022 19.5412 97.1022 19.122V15.1719C97.1022 14.6882 97.0216 14.3335 96.8604 14.1078C96.7099 13.8713 96.4251 13.7531 96.0059 13.7531V13.4145C96.3499 13.4468 96.6831 13.4629 97.0055 13.4629C97.4032 13.4629 97.7794 13.4468 98.1341 13.4145C98.4996 13.3715 98.8328 13.3124 99.1337 13.2372ZM104.014 10.7704V13.4306H106.077V13.7531H104.014V20.17C104.014 20.5569 104.084 20.831 104.223 20.9922C104.363 21.1535 104.562 21.2341 104.82 21.2341C105.067 21.2341 105.293 21.1427 105.497 20.96C105.701 20.7665 105.884 20.4494 106.045 20.0087L106.335 20.1377C106.174 20.6644 105.922 21.1051 105.578 21.4598C105.244 21.8037 104.772 21.9757 104.159 21.9757C103.793 21.9757 103.482 21.9274 103.224 21.8306C102.977 21.7446 102.762 21.6156 102.579 21.4437C102.342 21.1965 102.181 20.9009 102.095 20.5569C102.02 20.213 101.982 19.7561 101.982 19.1865V13.7531H100.563V13.4306H101.982V11.1896C102.369 11.1788 102.729 11.1412 103.063 11.0767C103.396 11.0122 103.713 10.9101 104.014 10.7704ZM110.666 13.1888C111.612 13.1888 112.354 13.4736 112.891 14.0433C113.429 14.613 113.697 15.5212 113.697 16.7681H108.264L108.248 16.4617H111.827C111.849 15.9351 111.816 15.4514 111.73 15.0107C111.644 14.5592 111.505 14.1992 111.311 13.9305C111.128 13.6617 110.887 13.5274 110.586 13.5274C110.177 13.5274 109.822 13.7692 109.521 14.2529C109.22 14.7258 109.032 15.5051 108.957 16.5907L109.022 16.6874C109 16.8272 108.984 16.9777 108.973 17.1389C108.973 17.3001 108.973 17.4613 108.973 17.6226C108.973 18.3642 109.081 18.9769 109.296 19.4606C109.511 19.9442 109.79 20.2989 110.134 20.5247C110.478 20.7504 110.833 20.8632 111.198 20.8632C111.445 20.8632 111.698 20.8256 111.956 20.7504C112.214 20.6751 112.467 20.5354 112.714 20.3312C112.961 20.127 113.187 19.8368 113.391 19.4606L113.697 19.5895C113.579 19.9657 113.38 20.3419 113.101 20.7181C112.832 21.0836 112.483 21.3846 112.053 21.621C111.623 21.8575 111.118 21.9757 110.537 21.9757C109.806 21.9757 109.161 21.8145 108.602 21.492C108.044 21.1696 107.608 20.6913 107.297 20.0571C106.985 19.4122 106.829 18.6276 106.829 17.7032C106.829 16.7251 106.99 15.9028 107.313 15.2364C107.646 14.57 108.103 14.0648 108.683 13.7209C109.263 13.3662 109.925 13.1888 110.666 13.1888ZM117.823 13.1888C118.274 13.1888 118.661 13.2533 118.984 13.3823C119.306 13.5113 119.543 13.6241 119.693 13.7209C120.058 13.9896 120.279 13.8176 120.354 13.2049H120.709C120.687 13.5166 120.671 13.8875 120.66 14.3174C120.65 14.7366 120.644 15.3009 120.644 16.0103H120.29C120.236 15.6126 120.134 15.2256 119.983 14.8494C119.833 14.4733 119.612 14.1615 119.322 13.9143C119.032 13.6564 118.65 13.5274 118.177 13.5274C117.844 13.5274 117.565 13.6241 117.339 13.8176C117.124 14.0111 117.017 14.2852 117.017 14.6399C117.017 14.9623 117.113 15.2471 117.307 15.4944C117.5 15.7308 117.748 15.9565 118.049 16.1715C118.36 16.3757 118.683 16.6015 119.016 16.8487C119.403 17.1066 119.747 17.37 120.048 17.6387C120.349 17.8967 120.591 18.1869 120.773 18.5093C120.956 18.821 121.047 19.1919 121.047 19.6218C121.047 20.1162 120.908 20.5408 120.628 20.8955C120.359 21.2394 119.999 21.5082 119.548 21.7016C119.107 21.8844 118.618 21.9757 118.081 21.9757C117.791 21.9757 117.527 21.9488 117.291 21.8951C117.054 21.8414 116.845 21.7715 116.662 21.6855C116.522 21.6103 116.393 21.5404 116.275 21.4759C116.168 21.4114 116.055 21.3577 115.936 21.3147C115.829 21.2609 115.732 21.2824 115.646 21.3792C115.571 21.4759 115.512 21.6371 115.469 21.8629H115.114C115.136 21.5189 115.152 21.0997 115.163 20.6053C115.173 20.1109 115.179 19.4552 115.179 18.6383H115.533C115.609 19.2295 115.721 19.7508 115.872 20.2022C116.033 20.6429 116.264 20.9922 116.565 21.2502C116.866 21.4974 117.253 21.621 117.726 21.621C117.93 21.621 118.124 21.578 118.306 21.492C118.5 21.406 118.656 21.2717 118.774 21.089C118.903 20.9062 118.968 20.659 118.968 20.3473C118.968 19.8744 118.806 19.4821 118.484 19.1704C118.161 18.8586 117.758 18.5254 117.275 18.1707C116.909 17.902 116.565 17.6387 116.243 17.3807C115.931 17.1228 115.673 16.8326 115.469 16.5101C115.275 16.1876 115.179 15.8061 115.179 15.3654C115.179 14.8817 115.302 14.484 115.549 14.1723C115.797 13.8498 116.119 13.608 116.517 13.4468C116.925 13.2748 117.361 13.1888 117.823 13.1888Z" fill="white"/>
<path d="M135.731 1.29373H137.243V0.545172H133.425V1.29373H134.937V6.00964H135.731V1.29373ZM140.688 4.03345L139.041 0.545172H137.919V6.00964H138.697V1.60064L140.239 4.81195H141.137L142.679 1.60064V6.00964H143.458V0.545172H142.335L140.688 4.03345Z" fill="white"/>
<rect x="0.767751" y="4.76775" width="125.214" height="22.4645" stroke="white" stroke-width="1.5355"/>
</g>
</svg>
