<svg width="66" height="66" viewBox="0 0 66 66" fill="none" xmlns="http://www.w3.org/2000/svg">
<circle cx="33" cy="33" r="33" fill="#38BC64"/>
<path opacity="0.4" d="M33 33L26.5907 27.6589C25.6384 26.8653 25.1623 26.4685 24.82 25.9822C24.5167 25.5512 24.2914 25.0703 24.1545 24.5614C24 23.9871 24 23.3673 24 22.1277V18M33 33L39.4093 27.6589C40.3616 26.8653 40.8377 26.4685 41.18 25.9822C41.4833 25.5512 41.7086 25.0703 41.8455 24.5614C42 23.9871 42 23.3673 42 22.1277V18M33 33L26.5907 38.3411C25.6384 39.1347 25.1623 39.5315 24.82 40.0178C24.5167 40.4488 24.2914 40.9297 24.1545 41.4386C24 42.0129 24 42.6327 24 43.8723V48M33 33L39.4093 38.3411C40.3616 39.1347 40.8377 39.5315 41.18 40.0178C41.4833 40.4488 41.7086 40.9297 41.8455 41.4386C42 42.0129 42 42.6327 42 43.8723V48" stroke="white" stroke-width="2" stroke-linecap="round" stroke-linejoin="round"/>
<path d="M21.001 18.0002H45.001M21.001 48.0002H45.001" stroke="white" stroke-width="2" stroke-linecap="round" stroke-linejoin="round"/>
</svg>
