<svg width="102" height="102" viewBox="0 0 102 102" fill="none" xmlns="http://www.w3.org/2000/svg">
<path opacity="0.4" d="M34.5 41.8333L38.625 44.1249M51 50.9999L46.875 48.7083M51 50.9999L55.125 48.7083M51 50.9999V55.5833M67.5 41.8333L63.375 44.1249M51 69.3333V64.7499" stroke="white" stroke-width="2" stroke-linecap="round" stroke-linejoin="round"/>
<path d="M46.875 67.0417L50.223 68.9017C50.5066 69.0593 50.6484 69.1381 50.7986 69.169C50.9315 69.1963 51.0685 69.1963 51.2015 69.169C51.3516 69.1381 51.4934 69.0593 51.777 68.9017L55.125 67.0417M38.625 62.4584L35.323 60.624C35.0234 60.4576 34.8737 60.3743 34.7646 60.256C34.6682 60.1513 34.5951 60.0272 34.5505 59.8921C34.5 59.7393 34.5 59.5679 34.5 59.2253V55.5834M34.5 46.4168V42.7749C34.5 42.4322 34.5 42.2609 34.5505 42.1081C34.5951 41.9729 34.6682 41.8488 34.7646 41.7442C34.8737 41.6258 35.0234 41.5426 35.323 41.3762L38.625 39.5418M46.875 34.9584L50.223 33.0984C50.5066 32.9409 50.6484 32.8621 50.7986 32.8312C50.9315 32.8039 51.0685 32.8039 51.2015 32.8312C51.3516 32.8621 51.4934 32.9409 51.777 33.0984L55.125 34.9584M63.375 39.5417L66.677 41.3762C66.9766 41.5426 67.1263 41.6258 67.2354 41.7441C67.3318 41.8488 67.4049 41.9729 67.4495 42.1081C67.5 42.2609 67.5 42.4322 67.5 42.7749V46.4167M67.5 55.5834V59.2253C67.5 59.5679 67.5 59.7393 67.4495 59.8921C67.4049 60.0272 67.3318 60.1513 67.2354 60.256C67.1263 60.3743 66.9766 60.4576 66.677 60.624L63.375 62.4584" stroke="white" stroke-width="2" stroke-linecap="round" stroke-linejoin="round"/>
<rect opacity="0.5" x="0.5" y="0.5" width="101" height="101" rx="50.5" fill="#38BC64" fill-opacity="0.5" stroke="#38BC64"/>
</svg>
