<svg width="66" height="66" viewBox="0 0 66 66" fill="none" xmlns="http://www.w3.org/2000/svg">
<circle cx="33" cy="33" r="33" fill="#38BC64"/>
<path opacity="0.4" d="M16.333 38L17.5022 26.3085C17.5465 25.8653 17.5686 25.6436 17.6026 25.4535C18.0034 23.2117 19.8683 21.5239 22.1389 21.3482C22.3315 21.3333 22.5542 21.3333 22.9997 21.3333M49.6663 38L48.4972 26.3085C48.4529 25.8653 48.4307 25.6436 48.3967 25.4535C47.996 23.2117 46.131 21.5239 43.8605 21.3482C43.6679 21.3333 43.4452 21.3333 42.9997 21.3333" stroke="white" stroke-width="2" stroke-linecap="round" stroke-linejoin="round"/>
<path d="M29.6663 37.2245C31.7222 36.0363 34.2769 36.0363 36.3328 37.2245M27.7137 33.286C30.3172 35.8895 30.3172 40.1106 27.7137 42.7141C25.1102 45.3175 20.8891 45.3175 18.2856 42.7141C15.6821 40.1106 15.6821 35.8895 18.2856 33.286C20.8891 30.6825 25.1102 30.6825 27.7137 33.286ZM47.7137 33.286C50.3172 35.8895 50.3172 40.1106 47.7137 42.7141C45.1102 45.3175 40.8891 45.3175 38.2856 42.7141C35.6821 40.1106 35.6821 35.8895 38.2856 33.286C40.8891 30.6825 45.1102 30.6825 47.7137 33.286Z" stroke="white" stroke-width="2" stroke-linecap="round" stroke-linejoin="round"/>
</svg>
