<svg width="90" height="90" viewBox="0 0 90 90" fill="none" xmlns="http://www.w3.org/2000/svg">
<circle cx="45" cy="45" r="45" fill="#38BC64"/>
<path d="M44.5 49.1645C46.912 49.1645 48.8674 47.2091 48.8674 44.7971C48.8674 42.385 46.912 40.4297 44.5 40.4297C42.0879 40.4297 40.1326 42.385 40.1326 44.7971C40.1326 47.2091 42.0879 49.1645 44.5 49.1645Z" fill="white"/>
<path d="M44.5 53.7453C57.4426 53.7453 67.9347 49.7392 67.9347 44.7974C67.9347 39.8557 57.4426 35.8496 44.5 35.8496C31.5573 35.8496 21.0652 39.8557 21.0652 44.7974C21.0652 49.7392 31.5573 53.7453 44.5 53.7453Z" stroke="white" stroke-width="2.5"/>
<path d="M36.751 49.2722C43.2224 60.4809 51.9378 67.5643 56.2175 65.0934C60.4972 62.6226 58.7205 51.5331 52.2491 40.3244C45.7778 29.1157 37.0624 22.0323 32.7827 24.5032C28.503 26.9741 30.2797 38.0636 36.751 49.2722Z" stroke="white" stroke-width="2.5"/>
<path d="M36.7508 40.3239C30.2795 51.5325 28.5028 62.622 32.7825 65.0929C37.0622 67.5638 45.7776 60.4804 52.2489 49.2717C58.7203 38.063 60.4969 26.9735 56.2173 24.5026C51.9376 22.0318 43.2222 29.1152 36.7508 40.3239Z" stroke="white" stroke-width="2.5"/>
</svg>
