<svg width="102" height="102" viewBox="0 0 102 102" fill="none" xmlns="http://www.w3.org/2000/svg">
<rect opacity="0.5" x="0.5" y="0.5" width="101" height="101" rx="50.5" fill="#38BC64" fill-opacity="0.5" stroke="#38BC64"/>
<path opacity="0.4" d="M67.5 51C67.5 54.0433 60.1667 56.5 51 56.5C41.8333 56.5 34.5 54.0433 34.5 51" stroke="white" stroke-width="2" stroke-linecap="round" stroke-linejoin="round"/>
<path d="M67.5 38.1667C67.5 41.2043 60.1127 43.6667 51 43.6667C41.8873 43.6667 34.5 41.2043 34.5 38.1667M67.5 38.1667C67.5 35.1292 60.1127 32.6667 51 32.6667C41.8873 32.6667 34.5 35.1292 34.5 38.1667M67.5 38.1667V63.8334C67.5 66.8767 60.1667 69.3334 51 69.3334C41.8333 69.3334 34.5 66.8767 34.5 63.8334V38.1667" stroke="white" stroke-width="2" stroke-linecap="round" stroke-linejoin="round"/>
</svg>
