<svg width="102" height="102" viewBox="0 0 102 102" fill="none" xmlns="http://www.w3.org/2000/svg">
<rect opacity="0.5" x="0.5" y="0.5" width="101" height="101" rx="50.5" fill="#38BC64" fill-opacity="0.5" stroke="#38BC64"/>
<path opacity="0.4" d="M69.3327 45.5H32.666M32.666 43.3L32.666 58.7C32.666 61.7803 32.666 63.3204 33.2655 64.4969C33.7928 65.5318 34.6342 66.3732 35.6691 66.9005C36.8456 67.5 38.3857 67.5 41.466 67.5H60.5327C63.613 67.5 65.1531 67.5 66.3296 66.9005C67.3645 66.3732 68.2059 65.5318 68.7332 64.4969C69.3327 63.3204 69.3327 61.7803 69.3327 58.7V43.3C69.3327 40.2197 69.3327 38.6796 68.7332 37.5031C68.2059 36.4682 67.3645 35.6268 66.3296 35.0995C65.1531 34.5 63.613 34.5 60.5327 34.5L41.466 34.5C38.3857 34.5 36.8456 34.5 35.6691 35.0995C34.6342 35.6268 33.7928 36.4682 33.2655 37.5031C32.666 38.6796 32.666 40.2197 32.666 43.3Z" stroke="white" stroke-width="2" stroke-linecap="round" stroke-linejoin="round"/>
<path d="M54.6667 61.0834L59.25 56.5001L54.6667 51.9167M47.3333 51.9167L42.75 56.5001L47.3333 61.0834" stroke="white" stroke-width="2" stroke-linecap="round" stroke-linejoin="round"/>
</svg>
