<svg width="66" height="66" viewBox="0 0 66 66" fill="none" xmlns="http://www.w3.org/2000/svg">
<circle cx="33" cy="33" r="33" fill="#38BC64"/>
<path opacity="0.4" d="M31.3337 20.5H43.5003C45.3672 20.5 46.3006 20.5 47.0136 20.8633C47.6408 21.1829 48.1508 21.6928 48.4703 22.32C48.8337 23.0331 48.8337 23.9665 48.8337 25.8333V28C48.8337 29.5531 48.8337 30.3297 48.5799 30.9423C48.2416 31.759 47.5927 32.408 46.7759 32.7463C46.1634 33 45.3868 33 43.8337 33M34.667 45.5H22.5003C20.6335 45.5 19.7001 45.5 18.987 45.1367C18.3598 44.8171 17.8499 44.3072 17.5303 43.68C17.167 42.9669 17.167 42.0335 17.167 40.1667V38C17.167 36.4469 17.167 35.6703 17.4207 35.0577C17.759 34.241 18.408 33.592 19.2247 33.2537C19.8373 33 20.6139 33 22.167 33" stroke="white" stroke-width="2" stroke-linecap="round" stroke-linejoin="round"/>
<path d="M28.833 30.1666C28.833 29.6999 28.833 29.4666 28.9238 29.2883C29.0037 29.1315 29.1312 29.004 29.288 28.9241C29.4663 28.8333 29.6996 28.8333 30.1663 28.8333H35.833C36.2997 28.8333 36.5331 28.8333 36.7113 28.9241C36.8681 29.004 36.9956 29.1315 37.0755 29.2883C37.1663 29.4666 37.1663 29.6999 37.1663 30.1666V35.8333C37.1663 36.3 37.1663 36.5334 37.0755 36.7116C36.9956 36.8684 36.8681 36.9959 36.7113 37.0758C36.5331 37.1666 36.2997 37.1666 35.833 37.1666H30.1663C29.6996 37.1666 29.4663 37.1666 29.288 37.0758C29.1312 36.9959 29.0037 36.8684 28.9238 36.7116C28.833 36.5334 28.833 36.3 28.833 35.8333V30.1666Z" stroke="white" stroke-width="2" stroke-linecap="round" stroke-linejoin="round"/>
<path d="M41.333 42.6666C41.333 42.1999 41.333 41.9666 41.4238 41.7883C41.5037 41.6315 41.6312 41.504 41.788 41.4241C41.9663 41.3333 42.1996 41.3333 42.6663 41.3333H48.333C48.7997 41.3333 49.0331 41.3333 49.2113 41.4241C49.3681 41.504 49.4956 41.6315 49.5755 41.7883C49.6663 41.9666 49.6663 42.1999 49.6663 42.6666V48.3333C49.6663 48.8 49.6663 49.0334 49.5755 49.2116C49.4956 49.3684 49.3681 49.4959 49.2113 49.5758C49.0331 49.6666 48.7997 49.6666 48.333 49.6666H42.6663C42.1996 49.6666 41.9663 49.6666 41.788 49.5758C41.6312 49.4959 41.5037 49.3684 41.4238 49.2116C41.333 49.0334 41.333 48.8 41.333 48.3333V42.6666Z" stroke="white" stroke-width="2" stroke-linecap="round" stroke-linejoin="round"/>
<path d="M16.333 17.6666C16.333 17.1999 16.333 16.9666 16.4238 16.7883C16.5037 16.6315 16.6312 16.504 16.788 16.4241C16.9663 16.3333 17.1996 16.3333 17.6663 16.3333H23.333C23.7997 16.3333 24.0331 16.3333 24.2113 16.4241C24.3681 16.504 24.4956 16.6315 24.5755 16.7883C24.6663 16.9666 24.6663 17.1999 24.6663 17.6666V23.3333C24.6663 23.8 24.6663 24.0334 24.5755 24.2116C24.4956 24.3684 24.3681 24.4959 24.2113 24.5758C24.0331 24.6666 23.7997 24.6666 23.333 24.6666H17.6663C17.1996 24.6666 16.9663 24.6666 16.788 24.5758C16.6312 24.4959 16.5037 24.3684 16.4238 24.2116C16.333 24.0334 16.333 23.8 16.333 23.3333V17.6666Z" stroke="white" stroke-width="2" stroke-linecap="round" stroke-linejoin="round"/>
</svg>
