<svg width="102" height="102" viewBox="0 0 102 102" fill="none" xmlns="http://www.w3.org/2000/svg">
<path opacity="0.4" d="M34.5 43.3C34.5 40.2197 34.5 38.6796 35.0995 37.5031C35.6268 36.4682 36.4682 35.6268 37.5031 35.0995C38.6796 34.5 40.2197 34.5 43.3 34.5H58.7C61.7803 34.5 63.3204 34.5 64.4969 35.0995C65.5318 35.6268 66.3732 36.4682 66.9005 37.5031C67.5 38.6796 67.5 40.2197 67.5 43.3V58.7C67.5 61.7803 67.5 63.3204 66.9005 64.4969C66.3732 65.5318 65.5318 66.3732 64.4969 66.9005C63.3204 67.5 61.7803 67.5 58.7 67.5H43.3C40.2197 67.5 38.6796 67.5 37.5031 66.9005C36.4682 66.3732 35.6268 65.5318 35.0995 64.4969C34.5 63.3204 34.5 61.7803 34.5 58.7V43.3Z" stroke="white" stroke-width="3" stroke-linecap="round" stroke-linejoin="round"/>
<path d="M54.6693 60.1666L60.1693 54.6666L54.6693 49.1666M47.3359 41.8333L41.8359 47.3333L47.3359 52.8333" stroke="white" stroke-width="3" stroke-linecap="round" stroke-linejoin="round"/>
<rect opacity="0.5" x="0.5" y="0.5" width="101" height="101" rx="50.5" fill="#38BC64" fill-opacity="0.5" stroke="#38BC64"/>
</svg>
