<svg width="102" height="102" viewBox="0 0 102 102" fill="none" xmlns="http://www.w3.org/2000/svg">
<path opacity="0.4" d="M65.6693 65.6668V52.8335M51.0026 65.6668V47.3335M36.3359 65.6668L36.3359 58.3335" stroke="white" stroke-width="3" stroke-linecap="round" stroke-linejoin="round"/>
<path d="M53.5815 38.2171L63.057 41.7704M48.8004 38.9017L38.5364 46.5997M67.6138 40.8055C68.6878 41.8794 68.6878 43.6206 67.6138 44.6945C66.5399 45.7685 64.7987 45.7685 63.7247 44.6945C62.6508 43.6206 62.6508 41.8794 63.7247 40.8055C64.7987 39.7315 66.5399 39.7315 67.6138 40.8055ZM38.2805 46.3055C39.3544 47.3794 39.3544 49.1206 38.2805 50.1945C37.2065 51.2685 35.4653 51.2685 34.3914 50.1945C33.3175 49.1206 33.3175 47.3794 34.3914 46.3055C35.4653 45.2315 37.2065 45.2315 38.2805 46.3055ZM52.9471 35.3055C54.0211 36.3794 54.0211 38.1206 52.9471 39.1945C51.8732 40.2685 50.132 40.2685 49.0581 39.1945C47.9841 38.1206 47.9841 36.3794 49.0581 35.3055C50.132 34.2315 51.8732 34.2315 52.9471 35.3055Z" stroke="white" stroke-width="3" stroke-linecap="round" stroke-linejoin="round"/>
<rect opacity="0.5" x="0.5" y="0.5" width="101" height="101" rx="50.5" fill="#38BC64" fill-opacity="0.5" stroke="#38BC64"/>
</svg>
