<svg width="499" height="778" viewBox="0 0 499 778" fill="none" xmlns="http://www.w3.org/2000/svg">
<g opacity="0.2">
<rect x="130.707" y="235.926" width="315.15" height="29.0098" stroke="#38BC64"/>
<path d="M-0.5 222.165V147.038L130.055 235.691V269.955L-0.5 222.165Z" stroke="#38BC64"/>
<path d="M-0.171875 288.269H374.67V352.871H-0.171875V288.269Z" stroke="#38BC64"/>
<path d="M374.819 297.888H389.475L497.65 269.972M374.819 338.716H381.1L455.078 353.023M455.078 353.023V443.052H301.889M455.078 353.023H374.819M301.889 443.052H-0.324219V777.5H301.889V443.052Z" stroke="#38BC64"/>
<rect x="141.871" y="212.197" width="12.2601" height="23.4266" stroke="#38BC64"/>
<path d="M107.672 127.781V69.198L116.443 78.5951V139.371L107.672 127.781Z" stroke="#38BC64"/>
<rect x="130.707" y="265.238" width="366.794" height="4.58322" stroke="#38BC64"/>
<path d="M94.2625 210.999V137.72M94.2625 137.72L141.371 194.599V235.426M94.2625 137.72H-0.941406" stroke="#38BC64"/>
<path d="M-0.582031 13.9541L183.246 235.775M188.131 235.775L-0.582031 1" stroke="#38BC64"/>
<path d="M54.1523 68.2783H107.176" stroke="#38BC64"/>
<circle cx="363.304" cy="112.595" r="43.4678" stroke="#38BC64"/>
</g>
</svg>
