<svg width="90" height="90" viewBox="0 0 90 90" fill="none" xmlns="http://www.w3.org/2000/svg">
<circle cx="45" cy="45" r="45" fill="#38BC64"/>
<path d="M44.5653 72.3644C43.8239 72.3644 43.0876 72.1699 42.4376 71.7956L35.6647 67.7859C34.6532 67.2202 35.1468 67.0201 35.4804 66.9048C36.8292 66.4325 37.1029 66.3259 38.5426 65.5083C38.6939 65.422 38.8919 65.4524 39.0468 65.5438L44.25 68.6314C44.4379 68.733 44.7045 68.733 44.8787 68.6314L65.1661 56.9211C65.354 56.8144 65.4759 56.596 65.4759 56.3726V32.9621C65.4759 32.7285 65.354 32.5203 65.162 32.4035L44.8827 20.7033C44.6948 20.5916 44.446 20.5916 44.2581 20.7033L23.9828 32.4035C23.7863 32.5152 23.6614 32.7335 23.6614 32.957V56.3675C23.6614 56.591 23.7833 56.8042 23.9762 56.9109L29.5318 60.1203C32.5483 61.6285 34.3916 59.8512 34.3916 58.0636V34.9578C34.3916 34.6277 34.6506 34.3738 34.9807 34.3738H37.5503C37.8702 34.3738 38.1343 34.6277 38.1343 34.9578V58.0738C38.1343 62.0957 35.9405 64.4063 32.1268 64.4063C30.9537 64.4063 30.0295 64.4063 27.4497 63.1368L22.1278 60.0695C20.8125 59.3078 20 57.8859 20 56.3675V32.957C20 31.4335 20.8125 30.0116 22.1278 29.2601L42.4355 17.5446C43.7203 16.8185 45.4266 16.8185 46.7012 17.5446L66.9836 29.2651C68.2938 30.0218 69.1113 31.4386 69.1113 32.9621V56.3726C69.1113 57.891 68.2938 59.3078 66.9836 60.0695L46.7012 71.785C46.0512 72.1608 45.3149 72.3537 44.5633 72.3537" fill="white"/>
<path d="M50.8318 56.233C41.9551 56.233 40.0939 52.1583 40.0939 48.7406C40.0939 48.4156 40.356 48.1566 40.6815 48.1566H43.3018C43.5913 48.1566 43.835 48.3674 43.8808 48.6533C44.2769 51.3234 45.455 52.6701 50.8227 52.6701C55.0985 52.6701 56.9165 51.7043 56.9165 49.4368C56.9165 48.1318 56.3985 47.1618 49.7562 46.5118C44.2007 45.9634 40.7678 44.7395 40.7678 40.2961C40.7678 36.203 44.221 33.7655 50.0051 33.7655C56.5001 33.7655 59.7197 36.0202 60.1259 40.8648C60.1412 41.0324 60.0802 41.1949 59.9685 41.3168C59.8568 41.4336 59.6994 41.5047 59.5369 41.5047H56.9013C56.6271 41.5047 56.3884 41.3117 56.3325 41.0476C55.6977 38.2394 54.1641 37.3406 49.9949 37.3406C45.328 37.3406 44.7847 38.9656 44.7847 40.1844C44.7847 41.6621 45.4245 42.0938 51.7215 42.9266C57.9575 43.7543 60.9181 44.9223 60.9181 49.3048C60.9181 53.7229 57.2314 56.2569 50.8024 56.2569" fill="white"/>
</svg>
