<svg width="66" height="66" viewBox="0 0 66 66" fill="none" xmlns="http://www.w3.org/2000/svg">
<circle cx="33" cy="33" r="33" fill="#38BC64"/>
<path opacity="0.4" d="M26.333 31.6667C26.333 29.7998 26.333 28.8664 26.6963 28.1534C27.0159 27.5262 27.5258 27.0162 28.153 26.6967C28.8661 26.3333 29.7995 26.3333 31.6663 26.3333H44.333C46.1999 26.3333 47.1333 26.3333 47.8463 26.6967C48.4735 27.0162 48.9835 27.5262 49.303 28.1534C49.6663 28.8664 49.6663 29.7998 49.6663 31.6667V44.3333C49.6663 46.2002 49.6663 47.1336 49.303 47.8466C48.9835 48.4739 48.4735 48.9838 47.8463 49.3034C47.1333 49.6667 46.1999 49.6667 44.333 49.6667H31.6663C29.7995 49.6667 28.8661 49.6667 28.153 49.3034C27.5258 48.9838 27.0159 48.4739 26.6963 47.8466C26.333 47.1336 26.333 46.2002 26.333 44.3333V31.6667Z" stroke="white" stroke-width="2" stroke-linecap="round" stroke-linejoin="round"/>
<path d="M16.333 21.6667C16.333 19.7998 16.333 18.8664 16.6963 18.1534C17.0159 17.5262 17.5258 17.0162 18.153 16.6967C18.8661 16.3333 19.7995 16.3333 21.6663 16.3333H34.333C36.1999 16.3333 37.1333 16.3333 37.8463 16.6967C38.4735 17.0162 38.9835 17.5262 39.303 18.1534C39.6663 18.8664 39.6663 19.7998 39.6663 21.6667V34.3333C39.6663 36.2002 39.6663 37.1336 39.303 37.8466C38.9835 38.4739 38.4735 38.9838 37.8463 39.3034C37.1333 39.6667 36.1999 39.6667 34.333 39.6667H21.6663C19.7995 39.6667 18.8661 39.6667 18.153 39.3034C17.5258 38.9838 17.0159 38.4739 16.6963 37.8466C16.333 37.1336 16.333 36.2002 16.333 34.3333V21.6667Z" stroke="white" stroke-width="2" stroke-linecap="round" stroke-linejoin="round"/>
</svg>
