<svg width="66" height="66" viewBox="0 0 66 66" fill="none" xmlns="http://www.w3.org/2000/svg">
<circle cx="33" cy="33" r="33" fill="#38BC64"/>
<path opacity="0.4" d="M19.666 28.8333V40.1777C19.666 40.7975 19.666 41.1075 19.7627 41.3788C19.8482 41.6187 19.9875 41.8358 20.17 42.0135C20.3764 42.2145 20.6581 42.3436 21.2216 42.6018L31.8883 47.4907C32.297 47.6781 32.5014 47.7717 32.7142 47.8087C32.9029 47.8415 33.0958 47.8415 33.2844 47.8087C33.4973 47.7717 33.7017 47.6781 34.1104 47.4907L44.7771 42.6018C45.3406 42.3436 45.6223 42.2145 45.8287 42.0135C46.0112 41.8358 46.1505 41.6187 46.236 41.3788C46.3327 41.1075 46.3327 40.7975 46.3327 40.1777V28.8333" stroke="white" stroke-width="2" stroke-linecap="round" stroke-linejoin="round"/>
<path d="M41.334 37.1667V32.1574C41.334 31.8583 41.334 31.7087 41.2884 31.5766C41.2482 31.4599 41.1824 31.3535 41.096 31.2653C40.9983 31.1655 40.8645 31.0986 40.5969 30.9648L33.0007 27.1667M16.334 27.1667L32.4044 19.1315C32.623 19.0222 32.7323 18.9675 32.847 18.946C32.9485 18.9269 33.0528 18.9269 33.1543 18.946C33.269 18.9675 33.3783 19.0222 33.5969 19.1315L49.6673 27.1667L33.5969 35.2019C33.3783 35.3112 33.269 35.3658 33.1543 35.3874C33.0528 35.4064 32.9485 35.4064 32.847 35.3874C32.7323 35.3658 32.623 35.3112 32.4044 35.2019L16.334 27.1667Z" stroke="white" stroke-width="2" stroke-linecap="round" stroke-linejoin="round"/>
</svg>
