<svg width="332" height="333" viewBox="0 0 332 333" fill="none" xmlns="http://www.w3.org/2000/svg">
<circle cx="166" cy="166.5" r="165.5" fill="white" stroke="#DCDCDC"/>
<circle cx="166.215" cy="197.207" r="134.791" fill="white" stroke="#DCDCDC"/>
<circle cx="166.215" cy="227.273" r="104.726" fill="white" stroke="#DCDCDC"/>
<path d="M129.155 167.69C131.835 167.69 133.68 165.806 133.68 163.088C133.68 160.345 131.809 158.449 129.155 158.449H125.83V167.69H129.155ZM129.003 159.954C130.798 159.954 131.974 161.23 131.974 163.088C131.974 164.934 130.823 166.198 129.003 166.198H127.448V159.954H129.003ZM136.818 167.854C137.804 167.854 138.55 167.412 138.815 166.767L138.929 167.69H140.282V163.897C140.282 162.242 139.321 161.256 137.564 161.256C135.946 161.256 134.834 162.153 134.846 163.493H136.161C136.148 162.848 136.641 162.456 137.488 162.456C138.247 162.456 138.777 162.785 138.777 163.645V163.784L136.995 163.923C135.592 164.037 134.682 164.694 134.682 165.907C134.682 167.07 135.478 167.854 136.818 167.854ZM137.324 166.691C136.629 166.691 136.249 166.388 136.249 165.844C136.249 165.339 136.578 165.035 137.488 164.947L138.79 164.833V165.162C138.79 166.324 137.981 166.691 137.324 166.691ZM143.749 167.69V162.722H144.938V161.445H143.749V159.498H142.22V161.445H141.019V162.722H142.22V167.69H143.749ZM147.706 167.854C148.692 167.854 149.438 167.412 149.703 166.767L149.817 167.69H151.17V163.897C151.17 162.242 150.209 161.256 148.452 161.256C146.834 161.256 145.721 162.153 145.734 163.493H147.049C147.036 162.848 147.529 162.456 148.376 162.456C149.134 162.456 149.665 162.785 149.665 163.645V163.784L147.883 163.923C146.48 164.037 145.57 164.694 145.57 165.907C145.57 167.07 146.366 167.854 147.706 167.854ZM148.212 166.691C147.516 166.691 147.137 166.388 147.137 165.844C147.137 165.339 147.466 165.035 148.376 164.947L149.678 164.833V165.162C149.678 166.324 148.869 166.691 148.212 166.691ZM157.94 167.854C158.925 167.854 159.671 167.412 159.937 166.767L160.051 167.69H161.403V163.897C161.403 162.242 160.442 161.256 158.685 161.256C157.067 161.256 155.955 162.153 155.968 163.493H157.282C157.27 162.848 157.763 162.456 158.609 162.456C159.368 162.456 159.899 162.785 159.899 163.645V163.784L158.116 163.923C156.713 164.037 155.803 164.694 155.803 165.907C155.803 167.07 156.6 167.854 157.94 167.854ZM158.445 166.691C157.75 166.691 157.371 166.388 157.371 165.844C157.371 165.339 157.699 165.035 158.609 164.947L159.911 164.833V165.162C159.911 166.324 159.102 166.691 158.445 166.691ZM164.551 167.69V164.327C164.551 163.025 165.411 162.659 166.081 162.659C166.612 162.659 167.395 162.874 167.395 164.213V167.69H168.925V163.847C168.925 162.292 168.192 161.256 166.561 161.256C165.714 161.256 164.968 161.609 164.564 162.254L164.437 161.445H163.009V167.69H164.551ZM172.383 167.854C173.369 167.854 174.114 167.412 174.38 166.767L174.494 167.69H175.846V163.897C175.846 162.242 174.885 161.256 173.128 161.256C171.51 161.256 170.398 162.153 170.411 163.493H171.725C171.713 162.848 172.206 162.456 173.053 162.456C173.811 162.456 174.342 162.785 174.342 163.645V163.784L172.56 163.923C171.156 164.037 170.246 164.694 170.246 165.907C170.246 167.07 171.043 167.854 172.383 167.854ZM172.888 166.691C172.193 166.691 171.814 166.388 171.814 165.844C171.814 165.339 172.142 165.035 173.053 164.947L174.355 164.833V165.162C174.355 166.324 173.546 166.691 172.888 166.691ZM178.994 167.69V158.285H177.452V167.69H178.994ZM180.192 170.572C181.065 170.787 182.91 171.103 183.681 169.118L186.601 161.445H184.971L183.302 166.046L181.583 161.445H179.914L182.581 168.044L182.442 168.423C182.139 169.257 181.848 169.308 181.14 169.308H180.218L180.192 170.572ZM193.089 160.168C193.595 160.168 193.999 159.764 193.999 159.246C193.999 158.74 193.595 158.336 193.089 158.336C192.571 158.336 192.167 158.74 192.167 159.246C192.167 159.764 192.571 160.168 193.089 160.168ZM189.98 167.69V162.722H192.306V167.69H193.848V161.445H189.98V159.498H188.463V161.445H187.249V162.722H188.463V167.69H189.98ZM195.094 164.555C195.094 166.514 196.332 167.854 198.089 167.854C199.708 167.854 200.896 166.868 201.085 165.402H199.619C199.442 166.11 198.873 166.476 198.191 166.476C197.23 166.476 196.636 165.756 196.636 164.555C196.636 163.341 197.243 162.621 198.203 162.621C198.873 162.621 199.442 162.975 199.619 163.708H201.073C200.908 162.242 199.783 161.256 198.216 161.256C196.383 161.256 195.094 162.595 195.094 164.555ZM201.783 165.819C201.833 167.058 202.794 167.854 204.285 167.854C205.752 167.854 206.75 167.07 206.75 165.857C206.75 164.959 206.194 164.353 205.17 164.1L204.071 163.834C203.603 163.708 203.287 163.544 203.287 163.139C203.287 162.709 203.628 162.406 204.184 162.406C204.766 162.406 205.145 162.735 205.145 163.278H206.548C206.498 162.039 205.575 161.256 204.222 161.256C202.882 161.256 201.884 162.039 201.884 163.228C201.884 164.037 202.351 164.706 203.552 165.022L204.639 165.301C205.044 165.414 205.297 165.604 205.297 165.958C205.297 166.451 204.829 166.678 204.26 166.678C203.578 166.678 203.186 166.362 203.186 165.819H201.783Z" fill="#183028"/>
<path d="M132.442 101.547C135.122 101.547 136.967 99.6632 136.967 96.9454C136.967 94.2024 135.097 92.3062 132.442 92.3062H129.118V101.547H132.442ZM132.29 93.8105C134.085 93.8105 135.261 95.0872 135.261 96.9454C135.261 98.7909 134.111 100.055 132.29 100.055H130.736V93.8105H132.29ZM140.105 101.711C141.091 101.711 141.837 101.269 142.103 100.624L142.216 101.547H143.569V97.7544C143.569 96.0985 142.608 95.1125 140.851 95.1125C139.233 95.1125 138.121 96.01 138.133 97.3499H139.448C139.435 96.7052 139.928 96.3134 140.775 96.3134C141.534 96.3134 142.065 96.642 142.065 97.5016V97.6406L140.282 97.7797C138.879 97.8935 137.969 98.5508 137.969 99.7643C137.969 100.927 138.765 101.711 140.105 101.711ZM140.611 100.548C139.916 100.548 139.537 100.245 139.537 99.7011C139.537 99.1955 139.865 98.8921 140.775 98.8036L142.077 98.6898V99.0185C142.077 100.181 141.268 100.548 140.611 100.548ZM147.037 101.547V96.5788H148.225V95.3021H147.037V93.3554H145.507V95.3021H144.306V96.5788H145.507V101.547H147.037ZM150.993 101.711C151.979 101.711 152.725 101.269 152.99 100.624L153.104 101.547H154.457V97.7544C154.457 96.0985 153.496 95.1125 151.739 95.1125C150.121 95.1125 149.009 96.01 149.021 97.3499H150.336C150.323 96.7052 150.816 96.3134 151.663 96.3134C152.422 96.3134 152.952 96.642 152.952 97.5016V97.6406L151.17 97.7797C149.767 97.8935 148.857 98.5508 148.857 99.7643C148.857 100.927 149.653 101.711 150.993 101.711ZM151.499 100.548C150.804 100.548 150.424 100.245 150.424 99.7011C150.424 99.1955 150.753 98.8921 151.663 98.8036L152.965 98.6898V99.0185C152.965 100.181 152.156 100.548 151.499 100.548ZM158.926 99.6758C158.977 100.915 159.937 101.711 161.429 101.711C162.895 101.711 163.894 100.927 163.894 99.7137C163.894 98.8162 163.338 98.2095 162.314 97.9567L161.214 97.6912C160.746 97.5648 160.43 97.4005 160.43 96.996C160.43 96.5662 160.772 96.2628 161.328 96.2628C161.909 96.2628 162.289 96.5915 162.289 97.135H163.692C163.641 95.8962 162.718 95.1125 161.366 95.1125C160.026 95.1125 159.027 95.8962 159.027 97.0844C159.027 97.8935 159.495 98.5634 160.696 98.8794L161.783 99.1575C162.187 99.2713 162.44 99.4609 162.44 99.8148C162.44 100.308 161.973 100.535 161.404 100.535C160.721 100.535 160.329 100.219 160.329 99.6758H158.926ZM164.767 98.4117C164.767 100.371 166.006 101.711 167.763 101.711C169.381 101.711 170.569 100.725 170.759 99.2587H169.292C169.115 99.9665 168.546 100.333 167.864 100.333C166.903 100.333 166.309 99.6126 166.309 98.4117C166.309 97.1982 166.916 96.4777 167.876 96.4777C168.546 96.4777 169.115 96.8316 169.292 97.5648H170.746C170.582 96.0985 169.457 95.1125 167.889 95.1125C166.056 95.1125 164.767 96.4524 164.767 98.4117ZM172.72 94.0254C173.225 94.0254 173.643 93.6209 173.643 93.1026C173.643 92.597 173.225 92.1925 172.72 92.1925C172.202 92.1925 171.81 92.597 171.81 93.1026C171.81 93.6209 172.202 94.0254 172.72 94.0254ZM171.949 101.547H173.491V95.3021H171.949V101.547ZM174.754 98.4244C174.754 100.409 175.967 101.711 177.775 101.711C179.279 101.711 180.455 100.813 180.72 99.4862H179.292C179.14 100.03 178.546 100.409 177.8 100.409C176.865 100.409 176.283 99.8654 176.245 98.8668H180.695V98.3991C180.695 96.4145 179.595 95.1125 177.775 95.1125C175.98 95.1125 174.754 96.4145 174.754 98.4244ZM176.27 97.8808C176.283 96.9328 176.877 96.3892 177.724 96.3892C178.558 96.3892 179.153 96.9075 179.165 97.8808H176.27ZM183.578 101.547V98.1842C183.578 96.8822 184.437 96.5156 185.107 96.5156C185.638 96.5156 186.422 96.7305 186.422 98.0704V101.547H187.951V97.7038C187.951 96.149 187.218 95.1125 185.587 95.1125C184.741 95.1125 183.995 95.4664 183.59 96.1111L183.464 95.3021H182.035V101.547H183.578ZM189.135 98.4117C189.135 100.371 190.374 101.711 192.131 101.711C193.749 101.711 194.937 100.725 195.127 99.2587H193.66C193.483 99.9665 192.914 100.333 192.232 100.333C191.271 100.333 190.677 99.6126 190.677 98.4117C190.677 97.1982 191.284 96.4777 192.244 96.4777C192.914 96.4777 193.483 96.8316 193.66 97.5648H195.114C194.95 96.0985 193.825 95.1125 192.257 95.1125C190.424 95.1125 189.135 96.4524 189.135 98.4117ZM195.924 98.4244C195.924 100.409 197.138 101.711 198.945 101.711C200.45 101.711 201.625 100.813 201.891 99.4862H200.462C200.311 100.03 199.717 100.409 198.971 100.409C198.035 100.409 197.454 99.8654 197.416 98.8668H201.865V98.3991C201.865 96.4145 200.766 95.1125 198.945 95.1125C197.15 95.1125 195.924 96.4145 195.924 98.4244ZM197.441 97.8808C197.454 96.9328 198.048 96.3892 198.895 96.3892C199.729 96.3892 200.323 96.9075 200.336 97.8808H197.441Z" fill="#183028"/>
<path d="M119.449 43.1348C122.128 43.1348 123.974 41.2513 123.974 38.5335C123.974 35.7905 122.103 33.8944 119.449 33.8944H116.124V43.1348H119.449ZM119.297 35.3986C121.092 35.3986 122.267 36.6753 122.267 38.5335C122.267 40.3791 121.117 41.6432 119.297 41.6432H117.742V35.3986H119.297ZM124.887 40.0125C124.887 41.9971 126.101 43.2991 127.908 43.2991C129.412 43.2991 130.588 42.4016 130.853 41.0743H129.425C129.273 41.6179 128.679 41.9971 127.933 41.9971C126.998 41.9971 126.417 41.4535 126.379 40.4549H130.828V39.9872C130.828 38.0026 129.728 36.7006 127.908 36.7006C126.113 36.7006 124.887 38.0026 124.887 40.0125ZM126.404 39.4689C126.417 38.5209 127.011 37.9773 127.858 37.9773C128.692 37.9773 129.286 38.4956 129.299 39.4689H126.404ZM134.634 43.2991C135.569 43.2991 136.429 42.882 136.808 42.1488L136.909 43.1348H138.287V33.73H136.783V37.6992C136.391 37.0798 135.595 36.7006 134.722 36.7006C132.839 36.7006 131.701 38.0911 131.701 40.0378C131.701 41.9718 132.826 43.2991 134.634 43.2991ZM134.975 41.8833C133.888 41.8833 133.243 41.0996 133.243 39.9872C133.243 38.8748 133.888 38.0785 134.975 38.0785C136.05 38.0785 136.732 38.8622 136.732 39.9872C136.732 41.1122 136.05 41.8833 134.975 41.8833ZM140.815 35.6135C141.32 35.6135 141.737 35.209 141.737 34.6907C141.737 34.1851 141.32 33.7806 140.815 33.7806C140.296 33.7806 139.904 34.1851 139.904 34.6907C139.904 35.209 140.296 35.6135 140.815 35.6135ZM140.043 43.1348H141.586V36.8902H140.043V43.1348ZM142.799 39.9999C142.799 41.9592 144.038 43.2991 145.795 43.2991C147.413 43.2991 148.601 42.3131 148.791 40.8468H147.324C147.147 41.5547 146.578 41.9213 145.896 41.9213C144.935 41.9213 144.341 41.2007 144.341 39.9999C144.341 38.7863 144.948 38.0658 145.908 38.0658C146.578 38.0658 147.147 38.4198 147.324 39.1529H148.778C148.614 37.6866 147.489 36.7006 145.921 36.7006C144.088 36.7006 142.799 38.0405 142.799 39.9999ZM151.788 43.2991C152.774 43.2991 153.52 42.8567 153.786 42.212L153.899 43.1348H155.252V39.3425C155.252 37.6866 154.291 36.7006 152.534 36.7006C150.916 36.7006 149.804 37.5981 149.816 38.938H151.131C151.118 38.2934 151.611 37.9015 152.458 37.9015C153.217 37.9015 153.748 38.2302 153.748 39.0897V39.2288L151.965 39.3678C150.562 39.4816 149.652 40.1389 149.652 41.3524C149.652 42.5154 150.448 43.2991 151.788 43.2991ZM152.294 42.1361C151.599 42.1361 151.22 41.8328 151.22 41.2892C151.22 40.7836 151.548 40.4802 152.458 40.3917L153.76 40.278V40.6066C153.76 41.7696 152.951 42.1361 152.294 42.1361ZM158.72 43.1348V38.167H159.908V36.8902H158.72V34.9436H157.19V36.8902H155.989V38.167H157.19V43.1348H158.72ZM162.676 43.2991C163.662 43.2991 164.408 42.8567 164.673 42.212L164.787 43.1348H166.14V39.3425C166.14 37.6866 165.179 36.7006 163.422 36.7006C161.804 36.7006 160.692 37.5981 160.704 38.938H162.019C162.006 38.2934 162.499 37.9015 163.346 37.9015C164.105 37.9015 164.636 38.2302 164.636 39.0897V39.2288L162.853 39.3678C161.45 39.4816 160.54 40.1389 160.54 41.3524C160.54 42.5154 161.336 43.2991 162.676 43.2991ZM163.182 42.1361C162.487 42.1361 162.107 41.8328 162.107 41.2892C162.107 40.7836 162.436 40.4802 163.346 40.3917L164.648 40.278V40.6066C164.648 41.7696 163.839 42.1361 163.182 42.1361ZM167.278 40.0125C167.278 41.9971 168.491 43.2991 170.299 43.2991C171.803 43.2991 172.979 42.4016 173.244 41.0743H171.816C171.664 41.6179 171.07 41.9971 170.324 41.9971C169.389 41.9971 168.807 41.4535 168.77 40.4549H173.219V39.9872C173.219 38.0026 172.119 36.7006 170.299 36.7006C168.504 36.7006 167.278 38.0026 167.278 40.0125ZM168.795 39.4689C168.807 38.5209 169.402 37.9773 170.249 37.9773C171.083 37.9773 171.677 38.4956 171.69 39.4689H168.795ZM177.025 43.2991C177.96 43.2991 178.82 42.882 179.199 42.1488L179.3 43.1348H180.678V33.73H179.174V37.6992C178.782 37.0798 177.985 36.7006 177.113 36.7006C175.23 36.7006 174.092 38.0911 174.092 40.0378C174.092 41.9718 175.217 43.2991 177.025 43.2991ZM177.366 41.8833C176.279 41.8833 175.634 41.0996 175.634 39.9872C175.634 38.8748 176.279 38.0785 177.366 38.0785C178.441 38.0785 179.123 38.8622 179.123 39.9872C179.123 41.1122 178.441 41.8833 177.366 41.8833ZM187.902 43.1348V38.167H189.09V36.8902H187.902V34.9436H186.372V36.8902H185.172V38.167H186.372V43.1348H187.902ZM189.572 40.0125C189.572 41.9971 190.786 43.2991 192.593 43.2991C194.097 43.2991 195.273 42.4016 195.539 41.0743H194.11C193.958 41.6179 193.364 41.9971 192.619 41.9971C191.683 41.9971 191.102 41.4535 191.064 40.4549H195.513V39.9872C195.513 38.0026 194.414 36.7006 192.593 36.7006C190.798 36.7006 189.572 38.0026 189.572 40.0125ZM191.089 39.4689C191.102 38.5209 191.696 37.9773 192.543 37.9773C193.377 37.9773 193.971 38.4956 193.984 39.4689H191.089ZM198.525 43.2991C199.511 43.2991 200.256 42.8567 200.522 42.212L200.636 43.1348H201.988V39.3425C201.988 37.6866 201.027 36.7006 199.27 36.7006C197.652 36.7006 196.54 37.5981 196.553 38.938H197.867C197.855 38.2934 198.348 37.9015 199.195 37.9015C199.953 37.9015 200.484 38.2302 200.484 39.0897V39.2288L198.702 39.3678C197.298 39.4816 196.388 40.1389 196.388 41.3524C196.388 42.5154 197.185 43.2991 198.525 43.2991ZM199.03 42.1361C198.335 42.1361 197.956 41.8328 197.956 41.2892C197.956 40.7836 198.284 40.4802 199.195 40.3917L200.497 40.278V40.6066C200.497 41.7696 199.688 42.1361 199.03 42.1361ZM205.136 43.1348V39.5448C205.136 38.5335 205.73 38.0532 206.463 38.0532C207.197 38.0532 207.677 38.5209 207.677 39.4057V43.1348H209.181V39.5574C209.181 38.5335 209.763 38.0532 210.496 38.0532C211.242 38.0532 211.722 38.5209 211.722 39.4057V43.1348H213.214V39.0518C213.214 37.6108 212.417 36.7006 210.9 36.7006C209.952 36.7006 209.207 37.1557 208.903 37.8889C208.562 37.1557 207.879 36.7006 206.843 36.7006C206.11 36.7006 205.452 37.0419 205.086 37.5981L205.01 36.8902H203.594V43.1348H205.136Z" fill="#183028"/>
<circle cx="166" cy="264.853" r="67.6455" fill="#38BC64"/>
<path d="M135.619 263.674V270.336H137.199V261.096H135.796C135.556 261.905 134.924 262.41 133.42 262.41V263.674H135.619ZM140.779 263.674V270.336H142.359V261.096H140.956C140.716 261.905 140.084 262.41 138.58 262.41V263.674H140.779ZM145.939 263.674V270.336H147.519V261.096H146.116C145.876 261.905 145.244 262.41 143.74 262.41V263.674H145.939ZM154.443 270.336V267.024C154.456 265.874 154.43 264.964 154.342 264.395L156.668 270.336H158.197L160.523 264.382C160.473 264.862 160.435 265.634 160.435 267.492V270.336H162.028V261.096H160.435L157.439 268.452L154.443 261.096H152.901V270.336H154.443ZM164.667 262.815C165.172 262.815 165.59 262.41 165.59 261.892C165.59 261.386 165.172 260.982 164.667 260.982C164.149 260.982 163.757 261.386 163.757 261.892C163.757 262.41 164.149 262.815 164.667 262.815ZM163.896 270.336H165.438V264.091H163.896V270.336ZM168.71 270.336V266.973C168.71 265.672 169.57 265.305 170.24 265.305C170.771 265.305 171.555 265.52 171.555 266.86V270.336H173.084V266.493C173.084 264.938 172.351 263.902 170.72 263.902C169.873 263.902 169.128 264.256 168.723 264.9L168.597 264.091H167.168V270.336H168.71ZM177.022 270.5C177.869 270.5 178.678 270.108 179.045 269.527L179.146 270.336H180.587V264.091H179.045V267.365C179.045 268.49 178.615 269.122 177.604 269.122C176.82 269.122 176.276 268.743 176.276 267.454V264.091H174.734V267.997C174.734 269.489 175.543 270.5 177.022 270.5ZM184.337 270.336V265.368H185.525V264.091H184.337V262.145H182.808V264.091H181.607V265.368H182.808V270.336H184.337ZM186.007 267.214C186.007 269.198 187.221 270.5 189.028 270.5C190.533 270.5 191.708 269.603 191.974 268.275H190.545C190.394 268.819 189.799 269.198 189.054 269.198C188.118 269.198 187.537 268.655 187.499 267.656H191.948V267.188C191.948 265.204 190.849 263.902 189.028 263.902C187.233 263.902 186.007 265.204 186.007 267.214ZM187.524 266.67C187.537 265.722 188.131 265.179 188.978 265.179C189.812 265.179 190.406 265.697 190.419 266.67H187.524ZM192.746 268.465C192.796 269.704 193.757 270.5 195.248 270.5C196.715 270.5 197.713 269.717 197.713 268.503C197.713 267.606 197.157 266.999 196.133 266.746L195.034 266.481C194.566 266.354 194.25 266.19 194.25 265.785C194.25 265.355 194.591 265.052 195.147 265.052C195.729 265.052 196.108 265.381 196.108 265.924H197.511C197.461 264.686 196.538 263.902 195.185 263.902C193.845 263.902 192.847 264.686 192.847 265.874C192.847 266.683 193.314 267.353 194.515 267.669L195.602 267.947C196.007 268.061 196.26 268.25 196.26 268.604C196.26 269.097 195.792 269.325 195.223 269.325C194.541 269.325 194.149 269.009 194.149 268.465H192.746Z" fill="white"/>
</svg>
