<svg width="102" height="102" viewBox="0 0 102 102" fill="none" xmlns="http://www.w3.org/2000/svg">
<rect opacity="0.5" x="0.5" y="0.5" width="101" height="101" rx="50.5" fill="#38BC64" fill-opacity="0.5" stroke="#38BC64"/>
<path d="M67.398 61.5586C65.7315 65.66 62.8684 69.1694 59.3264 71.3622L59.3263 71.3622C59.0488 71.5341 58.4928 71.6221 57.7536 71.5265C57.0407 71.4343 56.3926 71.2012 56.0629 70.9971C56.0067 70.9621 55.9487 70.9258 55.8891 70.8883C55.4273 70.5983 54.8618 70.2433 54.1705 69.9914C53.3608 69.6963 52.4091 69.5477 51.1784 69.6589L51.1779 69.6589C50.2567 69.7427 49.5476 70.0275 48.9002 70.3461C48.6763 70.4563 48.4726 70.5629 48.2734 70.6672C47.8708 70.8778 47.4863 71.0791 46.9887 71.2818C46.2927 71.564 45.4498 71.6131 44.6079 71.4684C43.7644 71.3233 43.0028 70.9971 42.4922 70.6229L67.398 61.5586ZM67.398 61.5586C64.1651 60.0388 61.9768 56.4533 61.9768 52.3772C61.9768 48.7958 63.6601 45.6056 66.2522 43.8503M67.398 61.5586L66.2522 43.8503M66.2522 43.8503C65.6437 43.2198 64.8918 42.5865 63.9544 41.919L63.9539 41.9187C63.2589 41.4232 62.0027 41.0765 60.4809 40.9649C58.9917 40.8557 57.4149 40.9837 56.1974 41.2946L56.196 41.2949C55.2719 41.5294 54.4069 41.8732 53.6078 42.1908L53.5644 42.2081C53.1693 42.3651 52.7756 42.5209 52.4195 42.6391C52.0752 42.7534 51.6893 42.8595 51.3185 42.8776M66.2522 43.8503L42.4921 70.6227C36.8555 66.4828 34.3164 60.596 34.3164 53.5432C34.3164 50.3786 34.5386 48.213 35.3299 46.4865C36.1001 44.8059 37.4696 43.4206 40.0522 41.9774C41.6554 41.0827 44.0909 40.7666 46.3582 41.2991L46.359 41.2994C47.2896 41.517 48.1745 41.8819 48.9931 42.2195L49.0018 42.2231C49.3982 42.3865 49.7989 42.5516 50.156 42.6707C50.4898 42.7821 50.9101 42.8985 51.3185 42.8776M51.3185 42.8776C51.3176 42.8776 51.3168 42.8777 51.316 42.8777L51.2684 41.8788M51.3185 42.8776C51.3193 42.8775 51.3201 42.8775 51.321 42.8775L51.2684 41.8788M51.2684 41.8788C50.8441 41.9012 50.1727 41.6243 49.3463 41.2834C48.5444 40.9527 47.5965 40.5618 46.5868 40.3256H55.95C54.962 40.5764 54.045 40.9409 53.2575 41.254C52.4281 41.5837 51.7424 41.8563 51.2684 41.8788Z" stroke="white" stroke-width="2"/>
<path opacity="0.4" d="M57.4491 35.1241L57.4485 35.125C57.0196 35.7995 56.2869 36.5267 55.4558 37.1818C54.6319 37.8311 53.7803 38.3556 53.1755 38.6443L53.1735 38.6453C52.6597 38.892 51.8088 39.0725 51.0014 39.187C50.9664 39.1919 50.9317 39.1968 50.8973 39.2014C50.91 39.1272 50.9231 39.0513 50.9366 38.9743C51.0843 38.1321 51.2661 37.2394 51.4313 36.7644L51.4315 36.764C51.6535 36.1243 52.0972 35.2638 52.638 34.4429C53.185 33.6126 53.7672 32.9209 54.2282 32.5586C55.7885 31.3358 57.0452 30.874 57.9533 30.6796C58.2706 30.6117 58.5544 30.5745 58.8097 30.5506C58.7843 30.8185 58.7478 31.124 58.696 31.4532C58.509 32.642 58.1378 34.0435 57.4491 35.1241Z" stroke="white" stroke-width="2"/>
</svg>
