<svg width="66" height="66" viewBox="0 0 66 66" fill="none" xmlns="http://www.w3.org/2000/svg">
<circle cx="33" cy="33" r="33" fill="#38BC64"/>
<path opacity="0.4" d="M40.668 20.3462C42.9523 21.4814 44.5221 23.8387 44.5221 26.5626C44.5221 29.2865 42.9523 31.6437 40.668 32.7789M43.7513 40.8482C46.0815 41.9027 48.1798 43.6211 49.918 45.8334" stroke="white" stroke-width="2" stroke-linecap="round" stroke-linejoin="round"/>
<path d="M19.082 45.8333C22.0829 42.014 26.157 39.6667 30.6445 39.6667C35.132 39.6667 39.2062 42.014 42.207 45.8333M37.582 26.5625C37.582 30.394 34.476 33.5 30.6445 33.5C26.8131 33.5 23.707 30.394 23.707 26.5625C23.707 22.731 26.8131 19.625 30.6445 19.625C34.476 19.625 37.582 22.731 37.582 26.5625Z" stroke="white" stroke-width="2" stroke-linecap="round" stroke-linejoin="round"/>
</svg>
