<svg width="66" height="66" viewBox="0 0 66 66" fill="none" xmlns="http://www.w3.org/2000/svg">
<circle cx="33" cy="33" r="33" fill="#38BC64"/>
<path opacity="0.4" d="M37.167 44.6667L40.5003 48L48.0003 40.5" stroke="white" stroke-width="2" stroke-linecap="round" stroke-linejoin="round"/>
<path d="M48 29.6666H18M48 33.8333V27.6666C48 24.8664 48 23.4663 47.455 22.3967C46.9757 21.4559 46.2108 20.691 45.27 20.2116C44.2004 19.6666 42.8003 19.6666 40 19.6666H26C23.1997 19.6666 21.7996 19.6666 20.73 20.2116C19.7892 20.691 19.0243 21.4559 18.545 22.3967C18 23.4663 18 24.8664 18 27.6666V41.6666C18 44.4669 18 45.867 18.545 46.9366C19.0243 47.8774 19.7892 48.6423 20.73 49.1217C21.7996 49.6666 23.1997 49.6666 26 49.6666H33M39.6667 16.3333V23M26.3333 16.3333V23" stroke="white" stroke-width="2" stroke-linecap="round" stroke-linejoin="round"/>
</svg>
