<svg width="194" height="24" viewBox="0 0 194 24" fill="none" xmlns="http://www.w3.org/2000/svg">
<path d="M14.9355 12.7742C13.7742 12.7742 12.8065 13.7419 12.8065 14.9032C12.8065 16.0968 13.7742 17.0323 14.9355 17.0323C16.129 17.0323 17.0645 16.0645 17.0645 14.9032C17.0645 13.7419 16.0968 12.7742 14.9355 12.7742ZM8.54839 6.38709C7.3871 6.38709 6.41936 7.35484 6.41936 8.51613C6.41936 9.70968 7.3871 10.6452 8.54839 10.6452C9.74194 10.6452 10.6774 9.67742 10.6774 8.51613C10.6774 7.35484 9.70968 6.38709 8.54839 6.38709ZM8.54839 19.1936C7.3871 19.1936 6.41936 20.1613 6.41936 21.3226C6.41936 22.4839 7.3871 23.4516 8.54839 23.4516C9.74194 23.4516 10.6774 22.4839 10.6774 21.3226C10.6774 20.129 9.70968 19.1936 8.54839 19.1936ZM8.54839 12.7742C7.3871 12.7742 6.41936 13.7419 6.41936 14.9032C6.41936 16.0645 7.3871 17.0323 8.54839 17.0323C9.74194 17.0323 10.6774 16.0645 10.6774 14.9032C10.6774 13.7419 9.70968 12.7742 8.54839 12.7742ZM2.12903 12.7742C0.935486 12.7742 0 13.7419 0 14.9032C0 16.0968 0.967744 17.0323 2.12903 17.0323C3.29032 17.0323 4.25807 16.0645 4.25807 14.9032C4.25807 13.7419 3.32258 12.7742 2.12903 12.7742ZM189.968 23.4516H193.548V0.290321H189.968V23.4516ZM150.613 23.4516H154.161V6.38709H150.613V23.4516ZM152.355 0C151.194 0 150.226 0.967744 150.226 2.12903C150.226 3.29032 151.194 4.25806 152.355 4.25806C153.548 4.25806 154.484 3.29032 154.484 2.12903C154.516 0.935486 153.548 0 152.355 0ZM183.29 17.0323C183.29 19.7419 181.742 21.4194 179.258 21.4194C177.258 21.4194 176.161 20.3226 176.161 18.6774C176.161 16.8064 177.452 15.6452 180.29 15.6452H183.29V17.0323ZM179.839 5.87097C177.032 5.87097 175.065 6.83871 173.581 8.12904V10.8065C175.032 9.19355 176.839 8.3871 178.903 8.3871C181.613 8.3871 183.323 9.87097 183.323 12.9355V13.6129H180.097C175.032 13.6129 172.581 15.7097 172.581 18.7419C172.581 21.6452 174.839 23.871 178.065 23.871C180.677 23.871 182.452 22.5484 183.323 20.6452V23.4194H186.871V12.8065C186.839 8.41936 184.29 5.87097 179.839 5.87097ZM116.71 12.7742C117.129 10.0645 118.677 8.19355 121.258 8.19355C123.645 8.19355 125.258 9.74194 125.323 12.7742H116.71ZM121.355 5.87097C116.161 5.87097 112.806 9.58064 112.806 14.7742C112.806 20.2903 116.613 23.9355 122.032 23.9355C124.742 23.9355 126.968 23 128.355 21.6452V19.4516C127.065 20.7097 125.032 21.4194 123 21.4194C119.323 21.4194 116.774 19.1936 116.581 14.8387H128.903V13.7097C128.871 8.77419 125.935 5.87097 121.355 5.87097ZM166.032 21.4194C162.226 21.4194 160.161 18.5806 160.161 14.871C160.161 11.0645 162.387 8.45162 165.936 8.45162C167.839 8.45162 169.419 9.16129 170.806 10.8387V8.16129C169.548 6.77419 167.645 5.90322 165.194 5.90322C160 5.90322 156.355 9.83871 156.355 14.9677C156.355 20.0645 160.032 24 165.161 24C167.323 24 169.29 23.2903 171.032 21.5484V19.1936C169.839 20.5806 167.936 21.4194 166.032 21.4194ZM138.968 21.3548C136.129 21.3548 134.258 18.8387 134.258 15C134.258 11.0968 136.161 8.45162 139.097 8.45162C142.097 8.45162 143.903 11.0645 143.903 14.8387C143.903 18.6774 141.903 21.3548 138.968 21.3548ZM143.839 9.58065C142.742 7.22581 140.806 5.87097 138.258 5.87097C133.871 5.87097 130.419 9.80646 130.419 15.0645C130.419 20.2258 133.645 23.9355 137.903 23.9355C140.839 23.9355 142.935 22.1936 143.839 19.9032V23.4194H147.387V0.258066H143.839V9.58065ZM51.9032 5.87097C49.0968 5.87097 47.2258 7.41935 46.2903 9.77419V6.38709H42.7419V23.4516H46.2903V14.0645C46.2903 10.871 47.871 8.83871 50.6774 8.83871C53.2258 8.83871 54.2903 10.3548 54.2903 13.5484V23.4516H57.8387V12.8065C57.8387 8.41936 55.4839 5.87097 51.9032 5.87097ZM31.9677 21.5806C29.0645 21.5806 27.2903 18.9677 27.2903 14.9355C27.2903 10.871 29.0645 8.25807 31.9677 8.25807C34.9355 8.25807 36.7097 10.871 36.7097 14.9355C36.7097 18.9677 34.9677 21.5806 31.9677 21.5806ZM31.9677 5.87097C27.0645 5.87097 23.4516 9.80645 23.4516 14.9355C23.4516 20.0645 27.0323 23.9677 31.9677 23.9677C36.9677 23.9677 40.5484 20.0645 40.5484 14.9355C40.5484 9.80645 36.9677 5.87097 31.9677 5.87097ZM63.871 12.7742C64.3226 10.0645 65.8387 8.19355 68.4516 8.19355C70.8065 8.19355 72.4194 9.74194 72.4839 12.7742H63.871ZM68.5161 5.87097C63.3226 5.87097 60 9.58064 60 14.7742C60 20.2903 63.7742 23.9355 69.1936 23.9355C71.9032 23.9355 74.129 23 75.5484 21.6452V19.4516C74.2258 20.7097 72.2258 21.4194 70.1936 21.4194C66.4839 21.4194 63.9355 19.1936 63.7742 14.8387H76.0645V13.7097C76.0323 8.77419 73.0968 5.87097 68.5161 5.87097ZM105.387 5.87097C103.032 5.87097 101.226 7.2258 100.226 9.48387C99.4839 7.19355 97.6452 5.87097 95.3871 5.87097C93.0968 5.87097 91.4839 7.22581 90.6452 9.41936V6.35484H87.0645V23.4194H90.6452V13.2258C90.6452 10.6129 91.9678 8.7742 94.0968 8.7742C96.0968 8.7742 97.129 10.129 97.129 12.7419V23.4194H100.677V12.9355C100.677 10.4839 102 8.7742 104.161 8.7742C106.161 8.7742 107.097 10.129 107.097 12.8387V23.4194H110.645V12.1935C110.677 8.25806 108.613 5.87097 105.387 5.87097Z" fill="white"/>
</svg>
