<svg width="102" height="102" viewBox="0 0 102 102" fill="none" xmlns="http://www.w3.org/2000/svg">
<path opacity="0.4" d="M48.2501 32.6719C47.0125 32.6886 46.2695 32.7603 45.6688 33.0664C44.9789 33.4179 44.4179 33.9789 44.0664 34.6688C43.7603 35.2695 43.6886 36.0125 43.6719 37.2501M64.7501 32.6719C65.9877 32.6886 66.7306 32.7603 67.3314 33.0664C68.0213 33.4179 68.5822 33.9789 68.9338 34.6688C69.2399 35.2695 69.3115 36.0125 69.3283 37.2501M69.3283 53.7501C69.3115 54.9877 69.2399 55.7306 68.9338 56.3314C68.5822 57.0213 68.0213 57.5822 67.3314 57.9338C66.7306 58.2399 65.9877 58.3115 64.7501 58.3283M69.3334 43.6667V47.3334M54.6668 32.6667H58.3333" stroke="white" stroke-width="2" stroke-linecap="round" stroke-linejoin="round"/>
<path d="M32.6641 49.5334C32.6641 47.4799 32.6641 46.4531 33.0637 45.6688C33.4152 44.9789 33.9762 44.4179 34.6661 44.0664C35.4504 43.6667 36.4772 43.6667 38.5307 43.6667H52.4641C54.5176 43.6667 55.5444 43.6667 56.3287 44.0664C57.0186 44.4179 57.5796 44.9789 57.9311 45.6688C58.3307 46.4531 58.3307 47.4799 58.3307 49.5334V63.4667C58.3307 65.5203 58.3307 66.547 57.9311 67.3314C57.5796 68.0213 57.0186 68.5822 56.3287 68.9338C55.5444 69.3334 54.5176 69.3334 52.4641 69.3334H38.5307C36.4772 69.3334 35.4504 69.3334 34.6661 68.9338C33.9762 68.5822 33.4152 68.0213 33.0637 67.3314C32.6641 66.547 32.6641 65.5203 32.6641 63.4667V49.5334Z" stroke="white" stroke-width="2" stroke-linecap="round" stroke-linejoin="round"/>
<rect opacity="0.5" x="0.5" y="0.5" width="101" height="101" rx="50.5" fill="#38BC64" fill-opacity="0.5" stroke="#38BC64"/>
</svg>
