<svg width="269" height="473" viewBox="0 0 269 473" fill="none" xmlns="http://www.w3.org/2000/svg">
<rect opacity="0.5" x="1" y="-1" width="61" height="61" rx="30.5" transform="matrix(-1 0 0 1 269 210)" fill="#38BC64" fill-opacity="0.2" stroke="#38BC64" stroke-width="2"/>
<path opacity="0.4" d="M237 250C242.523 250 247 245.523 247 240C247 234.477 242.523 230 237 230C231.477 230 227 234.477 227 240C227 245.523 231.477 250 237 250Z" stroke="#38BC64" stroke-width="2" stroke-linecap="round" stroke-linejoin="round"/>
<path d="M237 234V240L241 242" stroke="#38BC64" stroke-width="2" stroke-linecap="round" stroke-linejoin="round"/>
<rect opacity="0.5" x="1" y="-1" width="61" height="61" rx="30.5" transform="matrix(-1 0 0 1 210 311)" fill="#38BC64" fill-opacity="0.2" stroke="#38BC64" stroke-width="2"/>
<path d="M164.078 347.946V334.698H166.292V332.952H162.206V349.674H166.292V347.946H164.078ZM167.171 341.448C167.171 345.534 169.241 348.234 172.733 348.234C176.135 348.234 178.295 345.534 178.295 341.448C178.295 337.38 176.225 334.59 172.733 334.608C169.367 334.608 167.171 337.38 167.171 341.448ZM169.439 341.448C169.439 338.352 170.645 336.66 172.733 336.642C174.821 336.624 176.027 338.352 176.027 341.448C176.027 344.49 174.821 346.218 172.733 346.2C170.645 346.2 169.439 344.49 169.439 341.448ZM189.978 345.534V343.482H188.394V340.026H186.216V343.482H182.382L187.566 334.842H184.992L179.826 343.482V345.516L186.216 345.534V348H188.394V345.534H189.978ZM190.498 349.674H194.566V332.952H190.498V334.698H192.712V347.946H190.498V349.674Z" fill="#38BC64"/>
<rect opacity="0.5" x="1" y="209" width="61" height="61" rx="30.5" fill="#38BC64" fill-opacity="0.2" stroke="#38BC64" stroke-width="2"/>
<path d="M17.078 245.946V232.698H19.292V230.952H15.206V247.674H19.292V245.946H17.078ZM20.1709 239.448C20.1709 243.534 22.2409 246.234 25.7329 246.234C29.1349 246.234 31.2949 243.534 31.2949 239.448C31.2949 235.38 29.2249 232.59 25.7329 232.608C22.3669 232.608 20.1709 235.38 20.1709 239.448ZM22.4389 239.448C22.4389 236.352 23.6449 234.66 25.7329 234.642C27.8209 234.624 29.0269 236.352 29.0269 239.448C29.0269 242.49 27.8209 244.218 25.7329 244.2C23.6449 244.2 22.4389 242.49 22.4389 239.448ZM36.1019 239.502C36.5519 239.502 36.7859 239.502 37.0919 239.52C38.7119 239.628 39.4499 240.582 39.4499 241.824C39.4499 243.264 38.4599 244.182 37.0559 244.182C35.6339 244.182 34.7159 243.318 34.7159 241.806H32.4479C32.4479 244.578 34.4099 246.234 37.0199 246.234C39.6479 246.234 41.7179 244.542 41.7179 241.86C41.7179 239.592 40.2599 238.116 38.3879 237.666L41.4119 234.786V232.842H33.0599V234.876H38.4059L35.1479 237.99V239.502H36.1019ZM42.4259 247.674H46.4939V230.952H42.4259V232.698H44.6399V245.946H42.4259V247.674Z" fill="#38BC64"/>
<rect opacity="0.5" x="60" y="310" width="61" height="61" rx="30.5" fill="#38BC64" fill-opacity="0.2" stroke="#38BC64" stroke-width="2"/>
<path opacity="0.4" d="M98.9999 350L95.5 346.5" stroke="#38BC64" stroke-width="2" stroke-linecap="round" stroke-linejoin="round"/>
<path d="M89.5 349C94.1944 349 98 345.194 98 340.5C98 335.806 94.1944 332 89.5 332C84.8056 332 81 335.806 81 340.5C81 345.194 84.8056 349 89.5 349Z" stroke="#38BC64" stroke-width="2" stroke-linecap="round" stroke-linejoin="round"/>
<rect opacity="0.5" x="1" y="1" width="61" height="61" rx="30.5" fill="#38BC64" fill-opacity="0.2" stroke="#38BC64" stroke-width="2"/>
<path d="M19.078 38.946V25.698H21.292V23.952H17.206V40.674H21.292V38.946H19.078ZM22.1709 32.448C22.1709 36.534 24.2409 39.234 27.7329 39.234C31.1349 39.234 33.2949 36.534 33.2949 32.448C33.2949 28.38 31.2249 25.59 27.7329 25.608C24.3669 25.608 22.1709 28.38 22.1709 32.448ZM24.4389 32.448C24.4389 29.352 25.6449 27.66 27.7329 27.642C29.8209 27.624 31.0269 29.352 31.0269 32.448C31.0269 35.49 29.8209 37.218 27.7329 37.2C25.6449 37.2 24.4389 35.49 24.4389 32.448ZM37.7088 29.514V39H39.9588V25.842H37.9608C37.6188 26.994 36.7188 27.714 34.5768 27.714V29.514H37.7088ZM41.4025 40.674H45.4705V23.952H41.4025V25.698H43.6165V38.946H41.4025V40.674Z" fill="#38BC64"/>
<rect opacity="0.5" x="60" y="102" width="61" height="61" rx="30.5" fill="#38BC64" fill-opacity="0.2" stroke="#38BC64" stroke-width="2"/>
<path d="M126.104 214.928V197.264H129.056V194.936H123.608V217.232H129.056V214.928H126.104ZM130.228 206.264C130.228 211.712 132.988 215.312 137.644 215.312C142.18 215.312 145.06 211.712 145.06 206.264C145.06 200.84 142.3 197.12 137.644 197.144C133.156 197.144 130.228 200.84 130.228 206.264ZM133.252 206.264C133.252 202.136 134.86 199.88 137.644 199.856C140.428 199.832 142.036 202.136 142.036 206.264C142.036 210.32 140.428 212.624 137.644 212.6C134.86 212.6 133.252 210.32 133.252 206.264ZM159.317 214.976V212.24H152.477C156.701 209.264 159.149 206.648 159.149 203.072C159.149 199.52 156.749 197.144 153.029 197.144C149.261 197.144 146.813 199.688 147.101 203.48H150.029C149.813 201.104 151.061 199.88 152.981 199.88C154.853 199.88 156.149 200.984 156.149 203.096C156.149 205.736 154.085 208.088 147.221 212.528V215L159.317 214.976ZM160.253 217.232H165.677V194.936H160.253V197.264H163.205V214.928H160.253V217.232Z" fill="white"/>
<path d="M61 129.5C59.3333 129.5 58 130.833 58 132.5C58 134.167 59.3333 135.5 61 135.5C62.6667 135.5 64 134.167 64 132.5C64 130.833 62.6667 129.5 61 129.5Z" fill="white"/>
<path d="M31.5 210L37.2735 200H25.7265L31.5 210ZM59 132.5C59 131.386 59.8856 130.5 61 130.5V128.5C58.781 128.5 57 130.281 57 132.5H59ZM61 130.5C62.1144 130.5 63 131.386 63 132.5H65C65 130.281 63.219 128.5 61 128.5V130.5ZM63 132.5C63 133.614 62.1144 134.5 61 134.5V136.5C63.219 136.5 65 134.719 65 132.5H63ZM61 134.5C59.8856 134.5 59 133.614 59 132.5H57C57 134.719 58.781 136.5 61 136.5V134.5ZM58 131.5H36.5V133.5H58V131.5ZM30.5 137.5V201H32.5V137.5H30.5ZM36.5 131.5C33.1863 131.5 30.5 134.186 30.5 137.5H32.5C32.5 135.291 34.2909 133.5 36.5 133.5V131.5Z" fill="#DCDCDC"/>
<path d="M61 28.5C59.3333 28.5 58 29.8333 58 31.5C58 33.1667 59.3333 34.5 61 34.5C62.6667 34.5 64 33.1667 64 31.5C64 29.8333 62.6667 28.5 61 28.5Z" fill="white"/>
<path d="M90.5 103L96.2735 93H84.7265L90.5 103ZM59 31.5C59 30.3856 59.8856 29.5 61 29.5V27.5C58.781 27.5 57 29.281 57 31.5H59ZM61 29.5C62.1144 29.5 63 30.3856 63 31.5H65C65 29.281 63.219 27.5 61 27.5V29.5ZM63 31.5C63 32.6144 62.1144 33.5 61 33.5V35.5C63.219 35.5 65 33.719 65 31.5H63ZM61 33.5C59.8856 33.5 59 32.6144 59 31.5H57C57 33.719 58.781 35.5 61 35.5V33.5ZM64 32.5H85.5V30.5H64V32.5ZM89.5 36.5V94H91.5V36.5H89.5ZM85.5 32.5C87.7091 32.5 89.5 34.2909 89.5 36.5H91.5C91.5 33.1863 88.8137 30.5 85.5 30.5V32.5Z" fill="#DCDCDC"/>
<path d="M61 236.5C59.3333 236.5 58 237.833 58 239.5C58 241.167 59.3333 242.5 61 242.5C62.6667 242.5 64 241.167 64 239.5C64 237.833 62.6667 236.5 61 236.5Z" fill="white"/>
<path d="M90.5 311L96.2735 301H84.7265L90.5 311ZM59 239.5C59 238.386 59.8856 237.5 61 237.5V235.5C58.781 235.5 57 237.281 57 239.5H59ZM61 237.5C62.1144 237.5 63 238.386 63 239.5H65C65 237.281 63.219 235.5 61 235.5V237.5ZM63 239.5C63 240.614 62.1144 241.5 61 241.5V243.5C63.219 243.5 65 241.719 65 239.5H63ZM61 241.5C59.8856 241.5 59 240.614 59 239.5H57C57 241.719 58.781 243.5 61 243.5V241.5ZM64 240.5H85.5V238.5H64V240.5ZM89.5 244.5V302H91.5V244.5H89.5ZM85.5 240.5C87.7091 240.5 89.5 242.291 89.5 244.5H91.5C91.5 241.186 88.8137 238.5 85.5 238.5V240.5Z" fill="#DCDCDC"/>
<path d="M76.078 139.946V126.698H78.292V124.952H74.206V141.674H78.292V139.946H76.078ZM79.1709 133.448C79.1709 137.534 81.2409 140.234 84.7329 140.234C88.1349 140.234 90.2949 137.534 90.2949 133.448C90.2949 129.38 88.2249 126.59 84.7329 126.608C81.3669 126.608 79.1709 129.38 79.1709 133.448ZM81.4389 133.448C81.4389 130.352 82.6449 128.66 84.7329 128.642C86.8209 128.624 88.0269 130.352 88.0269 133.448C88.0269 136.49 86.8209 138.218 84.7329 138.2C82.6449 138.2 81.4389 136.49 81.4389 133.448ZM100.988 139.982V137.93H95.8579C99.0259 135.698 100.862 133.736 100.862 131.054C100.862 128.39 99.0619 126.608 96.2719 126.608C93.4459 126.608 91.6099 128.516 91.8259 131.36H94.0219C93.8599 129.578 94.7959 128.66 96.2359 128.66C97.6399 128.66 98.6119 129.488 98.6119 131.072C98.6119 133.052 97.0639 134.816 91.9159 138.146V140L100.988 139.982ZM101.69 141.674H105.758V124.952H101.69V126.698H103.904V139.946H101.69V141.674Z" fill="#38BC64"/>
<rect opacity="0.5" x="1" y="-1" width="61" height="61" rx="30.5" transform="matrix(-1 0 0 1 168 412)" fill="#38BC64" fill-opacity="0.2" stroke="#38BC64" stroke-width="2"/>
<path d="M122.078 448.946V435.698H124.292V433.952H120.206V450.674H124.292V448.946H122.078ZM125.171 442.448C125.171 446.534 127.241 449.234 130.733 449.234C134.135 449.234 136.295 446.534 136.295 442.448C136.295 438.38 134.225 435.59 130.733 435.608C127.367 435.608 125.171 438.38 125.171 442.448ZM127.439 442.448C127.439 439.352 128.645 437.66 130.733 437.642C132.821 437.624 134.027 439.352 134.027 442.448C134.027 445.49 132.821 447.218 130.733 447.2C128.645 447.2 127.439 445.49 127.439 442.448ZM137.664 444.608C137.664 447.326 139.68 449.216 142.398 449.216C145.242 449.216 147.33 447.308 147.33 444.554C147.33 442.016 145.566 439.982 142.848 439.982C142.038 439.982 141.336 440.162 140.796 440.504L141.444 438.056H146.538V435.842H139.68L138.024 442.736L140.148 443.024C140.616 442.34 141.444 441.872 142.452 441.872C143.874 441.872 145.044 442.898 145.044 444.536C145.044 446.156 143.802 447.164 142.452 447.164C140.994 447.164 139.932 446.192 139.932 444.608H137.664ZM147.971 450.674H152.039V433.952H147.971V435.698H150.185V448.946H147.971V450.674Z" fill="#38BC64"/>
<rect opacity="0.5" x="1" y="-1" width="61" height="61" rx="30.5" transform="matrix(-1 0 0 1 269 2)" fill="#38BC64" fill-opacity="0.2" stroke="#38BC64" stroke-width="2"/>
<path d="M225.078 38.946V25.698H227.292V23.952H223.206V40.674H227.292V38.946H225.078ZM228.171 32.448C228.171 36.534 230.241 39.234 233.733 39.234C237.135 39.234 239.295 36.534 239.295 32.448C239.295 28.38 237.225 25.59 233.733 25.608C230.367 25.608 228.171 28.38 228.171 32.448ZM230.439 32.448C230.439 29.352 231.645 27.66 233.733 27.642C235.821 27.624 237.027 29.352 237.027 32.448C237.027 35.49 235.821 37.218 233.733 37.2C231.645 37.2 230.439 35.49 230.439 32.448ZM243.709 29.514V39H245.959V25.842H243.961C243.619 26.994 242.719 27.714 240.577 27.714V29.514H243.709ZM247.403 40.674H251.471V23.952H247.403V25.698H249.617V38.946H247.403V40.674Z" fill="#38BC64"/>
<rect opacity="0.5" x="1" y="-1" width="61" height="61" rx="30.5" transform="matrix(-1 0 0 1 210 103)" fill="#38BC64" fill-opacity="0.2" stroke="#38BC64" stroke-width="2"/>
<path d="M208 129.5C209.667 129.5 211 130.833 211 132.5C211 134.167 209.667 135.5 208 135.5C206.333 135.5 205 134.167 205 132.5C205 130.833 206.333 129.5 208 129.5Z" fill="white"/>
<path d="M237.5 210L231.726 200H243.274L237.5 210ZM210 132.5C210 131.386 209.114 130.5 208 130.5V128.5C210.219 128.5 212 130.281 212 132.5H210ZM208 130.5C206.886 130.5 206 131.386 206 132.5H204C204 130.281 205.781 128.5 208 128.5V130.5ZM206 132.5C206 133.614 206.886 134.5 208 134.5V136.5C205.781 136.5 204 134.719 204 132.5H206ZM208 134.5C209.114 134.5 210 133.614 210 132.5H212C212 134.719 210.219 136.5 208 136.5V134.5ZM211 131.5H232.5V133.5H211V131.5ZM238.5 137.5V201H236.5V137.5H238.5ZM232.5 131.5C235.814 131.5 238.5 134.186 238.5 137.5H236.5C236.5 135.291 234.709 133.5 232.5 133.5V131.5Z" fill="#DCDCDC"/>
<path d="M208 28.5C209.667 28.5 211 29.8333 211 31.5C211 33.1667 209.667 34.5 208 34.5C206.333 34.5 205 33.1667 205 31.5C205 29.8333 206.333 28.5 208 28.5Z" fill="white"/>
<path d="M178.5 103L172.726 93H184.274L178.5 103ZM210 31.5C210 30.3856 209.114 29.5 208 29.5V27.5C210.219 27.5 212 29.281 212 31.5H210ZM208 29.5C206.886 29.5 206 30.3856 206 31.5H204C204 29.281 205.781 27.5 208 27.5V29.5ZM206 31.5C206 32.6144 206.886 33.5 208 33.5V35.5C205.781 35.5 204 33.719 204 31.5H206ZM208 33.5C209.114 33.5 210 32.6144 210 31.5H212C212 33.719 210.219 35.5 208 35.5V33.5ZM205 32.5H183.5V30.5H205V32.5ZM179.5 36.5V94H177.5V36.5H179.5ZM183.5 32.5C181.291 32.5 179.5 34.2909 179.5 36.5H177.5C177.5 33.1863 180.186 30.5 183.5 30.5V32.5Z" fill="#DCDCDC"/>
<path d="M208 236.5C209.667 236.5 211 237.833 211 239.5C211 241.167 209.667 242.5 208 242.5C206.333 242.5 205 241.167 205 239.5C205 237.833 206.333 236.5 208 236.5Z" fill="white"/>
<path d="M178.5 311L172.726 301H184.274L178.5 311ZM210 239.5C210 238.386 209.114 237.5 208 237.5V235.5C210.219 235.5 212 237.281 212 239.5H210ZM208 237.5C206.886 237.5 206 238.386 206 239.5H204C204 237.281 205.781 235.5 208 235.5V237.5ZM206 239.5C206 240.614 206.886 241.5 208 241.5V243.5C205.781 243.5 204 241.719 204 239.5H206ZM208 241.5C209.114 241.5 210 240.614 210 239.5H212C212 241.719 210.219 243.5 208 243.5V241.5ZM205 240.5H183.5V238.5H205V240.5ZM179.5 244.5V302H177.5V244.5H179.5ZM183.5 240.5C181.291 240.5 179.5 242.291 179.5 244.5H177.5C177.5 241.186 180.186 238.5 183.5 238.5V240.5Z" fill="#DCDCDC"/>
<path d="M148 343C149.667 343 151 341.667 151 340C151 338.333 149.667 337 148 337C146.333 337 145 338.333 145 340C145 341.667 146.333 343 148 343Z" fill="white"/>
<path d="M128 340C128 338.333 126.667 337 125 337C123.333 337 122 338.333 122 340C122 341.667 123.333 343 125 343C126.667 343 128 341.667 128 340ZM128 340H136.5M136.5 340V411.5M136.5 340H145M145 340C145 341.667 146.333 343 148 343C149.667 343 151 341.667 151 340C151 338.333 149.667 337 148 337C146.333 337 145 338.333 145 340Z" stroke="#DCDCDC" stroke-width="2" stroke-dasharray="0"/>
<path d="M165.078 139.946V126.698H167.292V124.952H163.206V141.674H167.292V139.946H165.078ZM168.171 133.448C168.171 137.534 170.241 140.234 173.733 140.234C177.135 140.234 179.295 137.534 179.295 133.448C179.295 129.38 177.225 126.59 173.733 126.608C170.367 126.608 168.171 129.38 168.171 133.448ZM170.439 133.448C170.439 130.352 171.645 128.66 173.733 128.642C175.821 128.624 177.027 130.352 177.027 133.448C177.027 136.49 175.821 138.218 173.733 138.2C171.645 138.2 170.439 136.49 170.439 133.448ZM189.988 139.982V137.93H184.858C188.026 135.698 189.862 133.736 189.862 131.054C189.862 128.39 188.062 126.608 185.272 126.608C182.446 126.608 180.61 128.516 180.826 131.36H183.022C182.86 129.578 183.796 128.66 185.236 128.66C186.64 128.66 187.612 129.488 187.612 131.072C187.612 133.052 186.064 134.816 180.916 138.146V140L189.988 139.982ZM190.69 141.674H194.758V124.952H190.69V126.698H192.904V139.946H190.69V141.674Z" fill="#38BC64"/>
</svg>
