<svg width="102" height="102" viewBox="0 0 102 102" fill="none" xmlns="http://www.w3.org/2000/svg">
<rect opacity="0.5" x="0.5" y="0.5" width="101" height="101" rx="50.5" fill="#38BC64" fill-opacity="0.5" stroke="#38BC64"/>
<path opacity="0.4" d="M40.1731 49.5862C40.0591 48.8518 40 48.0995 40 47.3334C40 39.2332 46.6097 32.6667 54.7632 32.6667C62.9166 32.6667 69.5263 39.2332 69.5263 47.3334C69.5263 49.1632 69.189 50.9147 68.5729 52.53C68.4449 52.8655 68.3809 53.0332 68.3518 53.1642C68.323 53.2939 68.3119 53.3852 68.3088 53.5181C68.3057 53.6522 68.3238 53.7999 68.3602 54.0953L69.0983 60.0907C69.1782 60.7397 69.2181 61.0642 69.1102 61.3002C69.0156 61.5069 68.8476 61.671 68.6387 61.7608C68.4004 61.8633 68.0769 61.8159 67.4299 61.7211L61.5902 60.8651C61.2853 60.8204 61.1329 60.798 60.994 60.7988C60.8566 60.7996 60.7616 60.8098 60.6272 60.838C60.4913 60.8666 60.3177 60.9316 59.9705 61.0616C58.3511 61.6682 56.5962 62.0001 54.7632 62.0001C53.9965 62.0001 53.2434 61.942 52.5083 61.8301" stroke="white" stroke-width="2" stroke-linecap="round" stroke-linejoin="round"/>
<path d="M52.8346 59.2498C52.8346 64.8187 48.4282 69.3332 42.9925 69.3332C41.8697 69.3332 40.7907 69.1405 39.7855 68.7857C39.4039 68.6511 39.2132 68.5838 39.0848 68.5582C38.9497 68.5312 38.8766 68.5238 38.7388 68.5228C38.608 68.5219 38.4581 68.5424 38.1584 68.5833L32.668 69.3332L33.7888 64.2701C33.8622 63.9382 33.899 63.7723 33.9074 63.6255C33.9163 63.4722 33.9121 63.3871 33.8883 63.2354C33.8655 63.0901 33.7961 62.8775 33.6571 62.4522C33.3285 61.4461 33.1504 60.3693 33.1504 59.2498C33.1504 53.681 37.5569 49.1665 42.9925 49.1665C48.4282 49.1665 52.8346 53.681 52.8346 59.2498Z" stroke="white" stroke-width="2" stroke-linecap="round" stroke-linejoin="round"/>
</svg>
