<svg width="102" height="102" viewBox="0 0 102 102" fill="none" xmlns="http://www.w3.org/2000/svg">
<rect opacity="0.5" x="0.5" y="0.5" width="101" height="101" rx="50.5" fill="#38BC64" fill-opacity="0.5" stroke="#38BC64"/>
<path opacity="0.4" d="M47.3333 65.6667H34.5M67.5 65.6667H54.6667M51 54.6667V62.0001" stroke="white" stroke-width="2" stroke-linecap="round" stroke-linejoin="round"/>
<path d="M67.5 38.1667C67.5 41.2043 60.1127 43.6667 51 43.6667C41.8873 43.6667 34.5 41.2043 34.5 38.1667M67.5 38.1667C67.5 35.1292 60.1127 32.6667 51 32.6667C41.8873 32.6667 34.5 35.1292 34.5 38.1667M67.5 38.1667V49.1667C67.5 52.2101 60.1667 54.6667 51 54.6667C41.8333 54.6667 34.5 52.2101 34.5 49.1667V38.1667M54.6667 65.6667C54.6667 67.6918 53.025 69.3334 51 69.3334C48.975 69.3334 47.3333 67.6918 47.3333 65.6667C47.3333 63.6417 48.975 62.0001 51 62.0001C53.025 62.0001 54.6667 63.6417 54.6667 65.6667Z" stroke="white" stroke-width="2" stroke-linecap="round" stroke-linejoin="round"/>
</svg>
