<svg width="102" height="102" viewBox="0 0 102 102" fill="none" xmlns="http://www.w3.org/2000/svg">
<path opacity="0.4" d="M34.5 51H34.5183M42.75 51H42.7683M59.25 51H59.2683M51 51H51.0183M67.5 51H67.5183" stroke="white" stroke-width="2" stroke-linecap="round" stroke-linejoin="round"/>
<path d="M67.5 67.5V66.0333C67.5 63.9798 67.5 62.953 67.1004 62.1687C66.7488 61.4788 66.1879 60.9178 65.498 60.5663C64.7136 60.1667 63.6869 60.1667 61.6333 60.1667H40.3667C38.3131 60.1667 37.2864 60.1667 36.502 60.5663C35.8121 60.9178 35.2512 61.4788 34.8996 62.1687C34.5 62.953 34.5 63.9798 34.5 66.0333V67.5M67.5 34.5V35.9667C67.5 38.0202 67.5 39.047 67.1004 39.8313C66.7488 40.5212 66.1879 41.0822 65.498 41.4337C64.7136 41.8333 63.6869 41.8333 61.6333 41.8333H40.3667C38.3131 41.8333 37.2864 41.8333 36.502 41.4337C35.8121 41.0822 35.2512 40.5212 34.8996 39.8313C34.5 39.047 34.5 38.0202 34.5 35.9667V34.5" stroke="white" stroke-width="2" stroke-linecap="round" stroke-linejoin="round"/>
<rect opacity="0.5" x="0.5" y="0.5" width="101" height="101" rx="50.5" fill="#38BC64" fill-opacity="0.5" stroke="#38BC64"/>
</svg>
